{"glyphs":{"0":{"ha":651,"x_min":0,"x_max":0,"o":"m 317 -32 b -19 325 169 -32 -19 129 b 438 886 -19 524 176 658 l 549 782 b 535 688 503 733 501 721 b 672 429 588 633 672 568 b 317 -32 672 236 507 106 m 389 229 b 419 279 403 229 419 253 b 263 515 419 350 294 515 b 235 467 250 515 235 493 b 389 229 235 396 351 229 "},"1":{"ha":543,"x_min":0,"x_max":0,"o":"m 617 85 b 46 -76 617 85 338 22 l -3 65 b 119 153 -3 65 86 83 b 147 360 143 200 147 292 b 85 489 147 438 142 489 b -26 460 43 489 -26 460 l -72 592 b 456 824 219 707 456 824 l 519 692 b 460 607 519 692 475 668 b 444 394 447 558 444 461 b 517 203 444 239 460 203 b 592 214 549 203 592 214 "},"2":{"ha":615,"x_min":0,"x_max":0,"o":"m 689 204 l 518 -15 b 244 -3 465 -15 340 -3 b 19 -28 143 -3 57 -17 b -49 140 -29 53 -49 140 b 303 461 83 225 303 388 b 168 546 303 507 221 546 b 17 494 108 546 17 494 l -40 599 l 249 797 b 617 649 522 797 617 649 b 267 206 617 415 267 243 b 307 197 267 199 276 197 b 615 290 458 197 517 231 "},"3":{"ha":554,"x_min":0,"x_max":0,"o":"m -69 608 l 197 796 b 569 642 449 796 569 642 b 367 371 569 504 453 419 b 596 150 449 344 596 283 b 197 -235 596 0 413 -118 b -61 -183 29 -235 -61 -183 l -8 60 b 221 6 19 56 146 6 b 304 67 282 6 304 39 b 58 221 304 128 204 221 l 36 351 b 257 458 199 392 257 424 b 132 526 257 492 196 526 b 1 488 65 526 1 488 "},"4":{"ha":700,"x_min":0,"x_max":0,"o":"m 268 -276 l 206 -169 b 331 17 296 -93 322 -72 l 24 17 l -35 188 l 176 639 l 526 799 l 583 711 b 225 214 343 494 268 311 l 335 218 b 333 400 333 304 333 383 l 568 442 l 568 217 b 756 254 614 217 672 222 l 808 153 l 622 17 l 572 17 b 581 -139 575 -90 579 -121 "},"5":{"ha":607,"x_min":0,"x_max":0,"o":"m 642 674 l 464 488 b 257 528 439 488 303 528 b 232 517 240 528 235 522 b 225 471 226 506 225 485 b 321 414 225 431 238 431 b 639 157 490 379 639 335 b 267 -232 639 -36 464 -111 b 0 -187 108 -232 0 -187 l 36 49 b 281 6 68 46 181 6 b 374 65 339 6 374 19 b 21 236 374 171 182 176 l 47 618 l 263 768 b 429 754 290 768 364 754 b 571 776 513 754 571 776 "},"6":{"ha":724,"x_min":0,"x_max":0,"o":"m 476 661 b 735 351 639 626 735 478 b 328 -61 735 225 636 132 b 3 336 74 -51 3 121 b 161 843 3 657 161 843 l 482 1029 l 568 911 b 299 582 397 786 313 701 m 328 450 b 276 340 304 450 276 417 b 394 179 276 211 357 179 b 458 254 425 179 458 203 b 328 450 458 339 371 450 "},"7":{"ha":593,"x_min":0,"x_max":0,"o":"m 617 596 l 376 -108 l 106 -278 l 31 -207 b 336 478 160 -58 336 400 b 224 528 336 513 301 528 b -61 438 115 528 29 497 l -135 540 l 114 767 b 360 754 160 767 242 754 b 540 763 457 754 540 763 "},"8":{"ha":732,"x_min":0,"x_max":0,"o":"m 376 989 b 739 754 546 989 739 894 b 589 557 739 686 693 632 b 744 354 678 503 744 438 b 364 -129 744 204 526 38 l 264 -51 b 260 31 300 -15 308 10 b 6 265 117 90 6 140 b 179 468 6 353 61 408 b 4 686 50 539 4 607 b 376 989 4 832 161 890 m 300 806 b 247 758 274 806 247 782 b 415 617 247 704 383 617 b 475 681 435 617 475 653 b 300 806 475 731 349 806 m 332 397 b 267 336 301 397 267 365 b 436 208 267 282 394 208 b 493 265 461 208 493 236 b 332 397 493 319 379 397 "},"9":{"ha":724,"x_min":0,"x_max":0,"o":"m 268 89 b -17 390 96 107 -17 257 b 388 794 -17 518 89 614 b 728 385 642 789 728 624 b 594 -86 728 194 674 33 l 219 -307 l 138 -190 b 431 176 276 -94 404 24 m 393 301 b 454 399 419 301 454 331 b 321 554 454 503 374 554 b 249 476 286 554 249 531 b 393 301 249 392 346 301 "}," ":{"ha":206,"x_min":0,"x_max":0,"o":""},"!":{"ha":575,"x_min":0,"x_max":0,"o":"m 183 349 b 50 882 154 563 110 763 l 393 1047 b 522 803 446 1018 493 972 l 410 336 m 506 142 b 278 -68 438 39 379 -25 b 119 186 189 -56 139 54 l 419 286 "},"\"":{"ha":629,"x_min":0,"x_max":0,"o":"m 115 569 b 68 826 115 569 103 700 l 68 942 l 276 963 b 296 839 276 961 296 911 l 215 568 m 381 569 b 333 826 381 569 369 700 l 333 942 l 542 963 b 561 839 543 961 561 911 l 481 568 "},"#":{"ha":986,"x_min":0,"x_max":0,"o":"m 149 0 l 175 192 l 33 192 l 53 343 l 197 343 l 215 472 l 72 472 l 93 624 l 236 624 l 264 815 l 493 815 l 465 624 l 581 624 l 608 815 l 836 815 l 808 624 l 953 624 l 933 472 l 788 472 l 769 343 l 914 343 l 893 192 l 747 192 l 721 0 l 493 0 l 519 192 l 404 192 l 378 0 m 426 343 l 542 343 l 560 472 l 444 472 "},"$":{"ha":703,"x_min":0,"x_max":0,"o":"m 174 272 b 190 236 174 272 175 257 b 267 189 210 211 235 199 l 281 303 b 36 521 167 343 36 399 b 333 774 36 646 174 699 l 343 897 l 483 882 l 468 803 b 626 768 569 793 626 768 b 603 529 618 689 610 610 l 496 529 b 467 575 496 529 489 561 b 432 590 458 581 446 585 l 419 492 b 667 267 535 451 667 394 b 367 13 667 126 511 69 l 358 -110 l 218 -94 l 233 -8 b 36 38 99 1 36 38 l 69 278 m 256 581 b 308 533 256 563 276 547 l 318 610 l 313 610 b 256 581 272 610 256 597 m 443 210 b 392 260 443 229 422 244 l 382 179 b 443 210 424 182 443 192 "},"%":{"ha":1224,"x_min":0,"x_max":0,"o":"m 285 374 b 11 633 167 374 11 492 b 350 1032 11 789 200 897 l 432 954 b 426 888 394 915 399 911 b 547 696 497 826 547 781 b 285 374 547 563 424 469 m 332 561 b 357 596 346 561 357 571 b 225 768 357 668 267 768 b 200 733 211 768 200 758 b 332 561 200 661 286 561 m 990 1006 l 1114 892 l 671 425 l 251 -61 l 129 54 l 572 521 m 954 -15 b 681 246 836 -15 681 104 b 1019 643 681 401 871 510 l 1101 567 b 1096 500 1064 528 1068 524 b 1217 307 1167 439 1217 393 b 954 -15 1217 176 1097 83 m 1001 174 b 1028 210 1015 174 1028 183 b 894 379 1028 281 936 379 b 869 343 881 379 869 369 b 1001 174 869 271 957 174 "},"&":{"ha":997,"x_min":0,"x_max":0,"o":"m 725 -69 b 572 78 665 -69 638 -18 b 450 -58 536 36 496 -8 b 0 229 158 -61 0 88 b 222 479 0 346 107 417 b 100 692 147 554 100 613 b 475 986 100 851 294 919 b 783 788 672 976 783 897 b 544 525 783 674 664 596 l 642 428 b 703 569 682 506 703 569 l 993 667 l 1035 582 b 764 308 924 499 853 417 b 1014 225 899 176 910 182 l 1060 136 m 397 194 b 469 221 415 194 440 203 b 446 249 461 229 454 239 b 332 372 415 285 371 333 b 301 296 313 349 301 324 b 397 194 301 235 357 194 m 383 744 b 453 621 383 714 397 683 b 496 710 479 647 496 675 b 424 790 496 758 463 790 b 383 744 394 790 383 772 "},"’":{"ha":394,"x_min":0,"x_max":0,"o":"m 39 663 b 43 1001 86 832 79 869 l 288 1089 b 343 917 319 1047 343 982 l 156 611 "},"(":{"ha":442,"x_min":0,"x_max":0,"o":"m 458 994 b 288 503 338 842 288 719 b 454 -174 288 108 454 -174 l 346 -240 b 89 482 346 -240 89 7 b 167 903 89 743 167 903 l 400 1064 "},")":{"ha":440,"x_min":0,"x_max":0,"o":"m 31 -146 b 197 401 154 42 197 204 b 39 1017 197 776 39 1017 l 142 1089 b 393 394 142 1089 393 857 b 311 -60 393 129 311 -60 l 86 -218 "},"*":{"ha":706,"x_min":0,"x_max":0,"o":"m 221 794 b 67 815 213 817 175 806 b 139 1018 67 875 100 981 b 267 942 228 958 247 925 b 235 1090 286 957 261 983 b 451 1090 285 1111 401 1111 b 419 940 425 982 401 956 b 549 1018 439 925 460 958 b 619 815 588 981 619 875 b 465 794 507 806 474 817 b 578 692 457 772 496 760 b 408 565 564 650 447 565 b 343 706 367 667 365 706 b 279 565 322 706 319 667 b 110 692 239 565 124 650 b 221 794 190 760 229 772 "},"+":{"ha":697,"x_min":0,"x_max":0,"o":"m 260 385 l 61 376 b 61 525 50 426 50 475 l 260 515 l 251 744 b 446 744 317 756 381 756 l 438 515 l 636 525 b 636 376 647 475 647 426 l 438 385 l 446 154 b 251 154 381 143 317 143 "},",":{"ha":419,"x_min":0,"x_max":0,"o":"m 50 -199 b 99 232 128 74 139 82 l 361 333 b 424 140 399 289 424 214 l 183 -257 "},"-":{"ha":563,"x_min":0,"x_max":0,"o":"m 513 415 l 326 293 b 53 288 222 293 153 308 l 8 407 l 194 529 b 468 535 299 528 369 514 "},".":{"ha":494,"x_min":0,"x_max":0,"o":"m 69 93 b 281 324 136 200 175 251 b 474 51 389 311 450 189 l 163 -57 "},"/":{"ha":563,"x_min":0,"x_max":0,"o":"m 360 1015 l 536 956 l 178 -74 l 1 -12 "},":":{"ha":497,"x_min":0,"x_max":0,"o":"m 103 142 b 285 340 160 235 194 278 b 450 106 376 329 431 226 l 183 14 m 103 485 b 285 683 160 578 194 621 b 450 449 376 672 431 568 l 183 357 "},";":{"ha":443,"x_min":0,"x_max":0,"o":"m 49 -199 b 99 232 126 74 139 82 l 360 333 b 424 140 397 289 424 214 l 182 -257 m 60 483 b 242 682 117 576 151 619 b 408 447 335 671 388 567 l 139 356 "},"<":{"ha":629,"x_min":0,"x_max":0,"o":"m 53 360 l 53 531 l 576 764 l 576 607 b 246 461 268 481 246 478 b 563 304 246 440 282 433 l 563 107 "},"=":{"ha":697,"x_min":0,"x_max":0,"o":"m 636 436 b 636 288 647 388 647 338 b 350 294 601 288 476 294 b 61 288 224 294 96 288 b 61 436 50 338 50 386 b 347 429 97 436 221 429 b 636 436 474 429 604 436 m 636 615 b 636 467 647 565 647 517 b 350 474 601 467 476 474 b 61 467 224 474 96 467 b 61 615 50 515 50 565 b 347 608 97 615 221 608 b 636 615 474 608 604 615 "},">":{"ha":660,"x_min":0,"x_max":0,"o":"m 607 521 l 607 349 l 83 115 l 83 272 b 414 418 392 400 414 401 b 97 576 414 439 378 447 l 97 774 "},"?":{"ha":613,"x_min":0,"x_max":0,"o":"m 393 264 b 503 96 465 217 503 96 b 271 -62 500 90 403 -14 b 147 136 175 -29 147 136 b 393 264 253 204 393 264 m 3 911 l 260 1085 b 647 896 521 1085 647 896 b 315 547 647 626 315 597 b 411 514 315 531 349 514 b 558 531 474 514 558 531 l 603 436 l 322 274 b 58 488 164 274 58 393 b 326 751 58 639 326 686 b 201 817 326 781 274 817 b 69 783 132 817 69 783 "},"@":{"ha":1328,"x_min":0,"x_max":0,"o":"m 1218 -39 l 890 -283 b 97 288 326 -304 97 -24 b 690 953 97 667 439 853 b 1275 488 1014 969 1192 814 b 907 13 1232 104 907 13 b 713 149 907 13 757 28 l 556 13 b 368 319 506 14 368 133 b 650 678 368 490 483 558 b 929 596 739 678 875 624 b 924 340 929 561 924 367 b 1017 225 924 250 993 225 b 1053 335 1039 225 1053 246 b 717 749 1053 607 921 749 b 292 318 497 749 292 586 b 778 -79 292 100 428 -79 b 1161 38 953 -79 1058 -35 m 668 250 b 683 261 672 250 681 256 b 694 354 689 271 694 296 b 674 463 694 419 688 449 b 635 479 664 472 647 479 b 606 424 618 479 606 465 b 668 250 606 346 649 250 "},"A":{"ha":824,"x_min":0,"x_max":0,"o":"m 956 86 l 585 -79 b 483 58 535 -57 524 -18 b 458 271 490 108 481 182 l 246 271 b 243 229 243 254 243 240 b 374 158 243 146 283 140 l 396 47 l -11 -75 b -87 89 -54 -60 -82 33 b 146 524 -10 157 49 269 b 214 743 193 649 214 711 b 118 772 214 772 196 776 l 110 899 l 601 994 b 888 183 772 282 803 183 b 919 188 904 183 919 188 m 336 640 b 275 421 308 549 289 478 l 415 421 b 336 640 393 489 365 563 "},"B":{"ha":839,"x_min":0,"x_max":0,"o":"m 671 565 b 876 315 775 518 876 439 b 514 -18 876 167 732 78 b 308 0 500 -18 388 0 b 50 -43 188 0 50 -43 l 6 82 b 69 161 42 106 60 118 b 90 511 83 226 90 419 b -22 724 90 717 56 735 l -46 850 l 299 997 b 368 867 299 997 360 965 l 536 985 b 847 775 706 985 847 892 b 671 565 847 697 782 629 m 389 417 b 375 415 385 417 379 417 b 401 232 375 296 381 253 b 503 199 419 214 464 199 b 549 236 533 199 549 208 b 389 417 549 304 457 417 m 386 694 b 375 549 378 671 375 636 b 510 654 467 572 510 610 b 433 738 510 696 472 738 b 386 694 411 738 396 724 "},"C":{"ha":688,"x_min":0,"x_max":0,"o":"m 732 207 l 476 -35 b -18 465 200 -64 -18 142 b 479 976 -18 783 194 846 b 710 928 632 976 710 928 b 685 638 710 783 685 638 l 561 640 b 413 733 533 703 501 733 b 296 599 321 733 296 701 b 543 226 296 374 414 226 b 669 288 582 226 608 240 "},"D":{"ha":840,"x_min":0,"x_max":0,"o":"m -40 875 l 547 981 b 883 529 749 960 883 768 b 460 -10 883 217 654 118 b 288 0 429 -10 347 0 b 60 -42 199 0 126 -21 l 11 96 b 69 161 46 118 63 128 b 86 518 79 210 86 374 b -25 753 86 751 68 764 m 551 407 b 417 738 551 600 467 738 b 386 699 399 738 389 718 b 399 265 378 643 382 333 b 454 219 404 243 418 219 b 551 407 501 219 551 258 "},"E":{"ha":671,"x_min":0,"x_max":0,"o":"m 681 504 l 497 407 b 386 413 478 407 435 410 b 483 203 386 243 393 203 b 729 311 574 203 639 243 l 792 244 l 568 -12 b 333 0 543 -12 440 0 b 60 -43 186 0 143 -24 l 14 94 b 69 154 50 114 63 124 b 85 503 78 193 85 360 b -25 743 85 740 65 744 l -42 864 l 272 951 b 464 942 292 951 386 942 b 688 968 592 942 688 968 l 726 867 l 535 726 b 436 739 519 726 469 739 b 396 710 404 739 399 726 b 388 569 392 685 389 632 b 653 608 464 567 543 568 "},"F":{"ha":669,"x_min":0,"x_max":0,"o":"m 661 518 l 469 421 b 406 424 457 421 433 422 b 492 171 407 249 421 171 b 535 175 508 171 535 175 l 557 53 b 51 -72 557 53 354 31 l 17 56 b 68 139 39 76 61 103 b 83 504 76 179 83 365 b -24 743 83 735 64 751 l -42 864 l 275 951 b 485 942 306 951 401 942 b 711 972 554 942 618 949 l 754 867 l 563 726 b 464 733 550 726 494 733 b 413 700 426 733 417 724 b 406 583 410 675 407 633 b 633 624 472 583 543 590 "},"G":{"ha":775,"x_min":0,"x_max":0,"o":"m 794 101 b 329 -65 600 -17 329 -65 b -21 446 101 8 -21 229 b 488 975 -21 758 232 849 b 767 947 642 975 767 947 b 749 629 765 778 749 629 l 629 629 b 579 696 619 664 610 681 b 418 725 540 715 475 725 b 299 572 333 725 299 703 b 463 183 299 339 408 183 b 507 203 475 183 497 192 b 517 250 515 213 517 236 b 443 313 517 294 503 306 l 439 436 b 858 444 439 436 654 422 l 860 331 b 794 101 790 303 794 303 "},"H":{"ha":989,"x_min":0,"x_max":0,"o":"m -36 863 b 478 969 -36 863 221 900 l 504 868 b 978 993 596 886 781 928 l 1013 868 b 949 790 979 850 957 829 b 931 426 936 733 931 543 b 1003 211 931 233 946 211 b 1071 218 1035 211 1071 218 l 1088 97 b 538 -50 1088 97 808 47 l 510 50 b 36 -72 417 32 228 -10 l 3 51 b 68 129 36 71 58 90 b 85 483 81 186 85 376 b 4 743 85 678 71 743 b -19 742 -6 743 -19 742 l -36 863 m 511 178 b 553 181 533 178 553 181 l 564 104 b 589 151 578 117 585 132 b 604 406 597 192 603 301 l 413 406 b 511 178 414 211 432 178 m 426 768 b 413 558 418 733 414 650 l 603 558 b 503 742 599 714 576 742 b 463 739 481 742 463 739 l 451 814 b 426 768 436 799 431 785 "},"I":{"ha":468,"x_min":0,"x_max":0,"o":"m 93 489 b 8 744 93 694 81 744 b -22 742 -8 744 -22 742 l -39 864 b 482 979 -39 864 224 906 l 515 857 b 435 779 467 838 443 819 b 419 443 425 729 419 571 b 510 175 419 224 436 175 b 549 178 528 175 549 178 l 567 60 b 42 -67 567 60 290 13 l 8 57 b 75 138 53 81 67 99 b 93 489 89 201 93 371 "},"J":{"ha":451,"x_min":0,"x_max":0,"o":"m -69 881 b 476 993 -69 881 210 921 l 507 871 b 428 797 472 857 442 849 b 411 528 415 754 411 649 b 419 69 411 358 419 156 l 57 -285 l -54 -199 b 97 358 81 36 97 21 b -57 754 97 724 78 768 "},"K":{"ha":854,"x_min":0,"x_max":0,"o":"m 946 94 l 615 -74 b 425 240 524 -49 483 83 b 322 -46 375 150 358 86 b 35 43 188 -74 74 -36 b 67 158 50 83 61 119 b 86 515 79 239 86 386 b -3 753 86 706 71 753 b -32 750 -21 753 -32 750 l -44 881 b 476 992 -44 881 219 919 l 507 871 b 428 796 457 850 439 839 b 414 493 415 751 414 676 b 686 976 581 829 686 976 b 881 939 763 976 807 957 b 772 622 919 826 869 622 b 686 636 746 622 706 636 b 618 543 643 636 618 569 b 767 236 618 499 683 358 b 904 192 814 168 832 160 "},"L":{"ha":614,"x_min":0,"x_max":0,"o":"m 753 228 l 575 -12 b 340 0 517 -12 456 0 b 61 -43 201 0 157 -18 l 17 94 b 72 154 40 107 65 119 b 89 521 82 203 89 424 b 19 740 89 708 63 740 b -22 736 4 740 -22 736 l -35 865 b 522 979 -35 865 221 914 l 544 858 b 447 786 490 839 463 825 b 418 425 428 736 418 615 b 497 208 418 233 428 208 b 689 293 575 208 607 239 "},"M":{"ha":1197,"x_min":0,"x_max":0,"o":"m 1314 83 l 935 -72 b 835 56 893 -64 860 -7 b 819 633 868 175 843 383 b 728 293 765 442 728 336 b 783 154 728 256 756 207 l 526 25 b 418 169 526 25 465 60 b 438 242 428 189 438 222 b 303 640 438 286 388 369 b 283 285 292 497 283 335 b 344 146 283 226 294 146 b 389 151 358 146 389 151 l 413 35 l 53 -75 b -26 79 53 -75 -10 -44 b 51 190 1 107 32 140 b 110 665 90 294 110 578 b 44 743 110 728 100 743 b -7 740 28 743 13 742 l -24 864 l 418 968 b 635 536 510 906 557 764 b 710 903 699 731 710 810 b 1115 993 889 932 1115 993 l 1153 851 b 1119 550 1107 811 1100 794 b 1224 179 1143 263 1165 179 b 1278 190 1244 179 1278 190 "},"N":{"ha":838,"x_min":0,"x_max":0,"o":"m 622 -40 b 256 497 579 89 456 224 b 347 186 254 231 275 186 b 397 190 369 186 397 190 l 425 69 l 10 -42 l -17 71 b 61 156 -17 71 40 101 b 94 474 78 199 94 322 b 36 739 94 618 79 682 b -72 799 1 785 -32 796 l -82 917 l 315 971 b 664 478 415 924 453 765 b 560 800 665 722 644 800 b 522 797 544 800 522 797 l 506 914 l 878 971 l 896 858 b 840 763 896 858 851 825 b 828 7 826 688 826 401 "},"O":{"ha":792,"x_min":0,"x_max":0,"o":"m 239 -43 b 228 101 272 14 279 56 b -28 503 171 153 -28 274 b 414 994 -28 754 208 864 b 828 567 615 994 828 804 b 371 -131 828 285 529 26 m 307 713 b 243 635 267 713 243 672 b 510 294 243 526 449 294 b 558 386 532 294 558 326 b 307 713 558 538 389 713 "},"P":{"ha":794,"x_min":0,"x_max":0,"o":"m -46 858 l 308 994 b 397 850 367 976 388 924 l 597 988 b 883 697 721 979 883 863 b 449 349 883 515 686 407 l 396 351 b 485 157 404 189 432 157 b 544 165 513 157 544 165 l 568 44 b 51 -75 568 44 272 11 l 15 49 b 61 124 38 68 53 88 b 85 438 75 179 85 300 b 10 732 85 632 65 732 b -24 729 0 732 -24 729 m 393 515 b 458 511 415 513 442 511 b 542 574 510 511 542 524 b 436 710 542 647 472 710 b 401 675 424 710 410 703 b 393 536 393 644 393 599 "},"Q":{"ha":776,"x_min":0,"x_max":0,"o":"m 1008 -142 l 711 -351 b 157 -150 497 -351 358 -129 l 124 -53 b 211 93 254 15 254 50 b -26 490 150 154 -26 272 b 461 996 -26 763 253 865 b 838 603 651 996 838 822 b 508 40 838 414 697 219 b 807 -99 583 -35 719 -99 b 954 -54 881 -99 954 -54 m 325 704 b 256 617 283 704 256 661 b 475 308 256 510 415 308 b 535 421 503 308 535 349 b 325 704 535 571 397 704 "},"R":{"ha":840,"x_min":0,"x_max":0,"o":"m 965 81 l 639 -71 b 457 244 529 -28 556 32 b 360 347 418 322 401 343 b 418 157 361 183 374 157 b 449 158 428 157 449 158 l 467 36 b 44 -76 467 36 242 0 l -1 58 b 63 139 44 97 56 107 b 85 432 75 185 85 289 b 1 753 85 643 64 753 b -39 747 -14 753 -39 747 l -61 878 l 301 999 b 382 846 351 969 381 914 l 578 994 b 868 724 722 986 868 851 b 644 444 868 608 746 511 b 864 169 757 304 799 169 b 924 181 883 169 924 181 m 375 676 b 360 515 368 649 361 592 b 538 601 469 517 538 531 b 422 726 538 676 464 726 b 375 676 401 726 385 715 "},"S":{"ha":629,"x_min":0,"x_max":0,"o":"m 133 299 b 151 253 133 299 135 278 b 336 182 185 204 251 182 b 425 222 400 182 425 194 b -19 626 425 338 -19 347 b 379 996 -19 811 176 875 b 628 950 539 997 628 950 l 603 642 l 485 642 b 451 697 485 642 476 678 b 282 743 419 724 326 743 b 225 706 242 743 225 726 b 672 296 225 597 672 590 b 276 -64 672 88 451 22 b -18 -7 75 -64 -18 -7 l 17 304 "},"T":{"ha":663,"x_min":0,"x_max":0,"o":"m 639 53 b 132 -79 639 53 400 17 l 81 72 b 149 154 81 72 132 89 b 174 561 164 218 174 421 b 110 764 174 746 157 764 b -64 728 42 764 -64 728 l -106 825 l 125 963 b 461 942 165 963 297 942 b 751 968 644 942 751 968 l 794 846 l 619 739 b 493 700 500 739 500 740 b 485 463 488 667 485 558 b 617 174 485 208 504 174 "},"U":{"ha":918,"x_min":0,"x_max":0,"o":"m 1024 65 b 608 -79 1024 65 803 11 b 542 35 563 -32 542 35 b 546 163 549 75 547 108 b 268 -68 458 35 378 -68 b 63 68 190 -68 151 -17 b 76 493 63 125 76 308 b 1 732 76 686 61 732 b -32 729 -12 732 -32 729 l -49 861 b 443 976 208 910 443 976 l 469 890 b 908 996 696 931 908 996 l 933 883 b 883 813 933 883 899 856 b 858 463 864 754 858 603 b 946 179 858 263 869 179 b 1000 185 965 179 1000 185 m 440 806 b 422 767 433 796 425 778 b 403 361 408 715 403 496 b 426 260 403 293 404 260 b 511 315 449 260 494 290 b 535 571 529 347 535 447 b 481 760 535 699 532 760 b 447 756 468 760 447 756 "},"V":{"ha":761,"x_min":0,"x_max":0,"o":"m -110 835 l 268 968 b 347 847 268 968 324 901 b 399 590 347 783 361 732 b 481 306 454 379 464 306 b 568 671 511 306 568 554 b 439 733 568 743 546 754 l 413 844 l 822 968 b 907 803 867 951 900 858 b 565 -43 804 717 738 507 b 167 197 271 -54 240 -35 b -65 728 82 461 31 728 b -87 726 -72 728 -87 726 "},"W":{"ha":1171,"x_min":0,"x_max":0,"o":"m 710 882 b 803 714 710 882 763 831 b 782 649 803 714 782 679 b 886 333 782 590 860 333 b 919 429 899 333 911 389 b 943 624 935 504 943 571 b 846 746 943 728 911 753 l 817 860 l 1182 968 b 1278 803 1226 951 1267 858 b 990 -56 1181 715 1128 528 b 594 338 726 -56 715 6 l 432 -53 b 153 131 257 -57 200 -26 b -40 738 86 353 61 738 b -86 731 -54 738 -86 731 l -112 856 l 286 989 b 371 874 286 989 338 951 b 397 531 349 814 361 735 b 440 344 422 389 428 344 b 510 538 461 344 510 485 b 426 771 510 588 464 665 "},"X":{"ha":728,"x_min":0,"x_max":0,"o":"m 425 665 b 608 1007 529 875 608 1007 b 801 858 608 1007 742 983 b 531 494 801 858 651 711 b 767 206 668 297 714 206 b 835 226 792 206 835 226 l 890 122 l 526 -101 b 308 208 417 -71 388 88 l 106 -108 b -82 26 106 -108 -17 -99 b 200 381 82 204 200 381 b -42 718 106 560 29 718 b -87 708 -60 718 -87 708 l -125 831 l 251 993 b 425 665 333 981 338 851 "},"Y":{"ha":740,"x_min":0,"x_max":0,"o":"m -158 850 l 249 1008 b 479 517 335 968 342 794 b 547 714 510 572 547 665 b 478 778 547 753 525 778 b 425 771 454 778 425 771 l 401 893 l 888 1001 l 918 879 b 619 504 842 839 758 724 b 532 290 546 388 532 363 b 610 163 532 185 561 163 b 678 168 633 163 678 168 l 697 53 b 165 -60 697 53 425 17 l 122 64 b 190 122 122 64 171 86 b 210 239 200 140 210 178 b 94 571 210 324 192 385 b -47 744 28 699 1 744 b -125 732 -74 744 -125 732 "},"Z":{"ha":742,"x_min":0,"x_max":0,"o":"m 886 272 l 668 -12 b 367 0 619 -12 478 0 b 50 -33 186 0 50 -33 l -17 81 b 371 719 206 424 371 669 b 271 753 371 738 349 753 b -7 657 163 753 99 724 l -69 754 l 158 953 b 463 942 211 953 333 942 b 743 956 608 942 743 956 l 811 851 b 410 219 592 499 410 275 b 490 190 410 199 435 190 b 807 346 624 190 689 238 "},"[":{"ha":414,"x_min":0,"x_max":0,"o":"m 414 -208 b 228 -203 394 -208 326 -203 b 56 -208 128 -203 56 -208 l 47 -199 b 61 404 47 -68 61 33 b 47 1018 61 774 47 886 l 56 1026 b 224 1022 56 1026 131 1022 b 414 1028 331 1022 392 1028 l 414 919 b 299 876 414 919 335 907 b 253 408 258 843 253 771 b 299 -58 253 46 258 -25 b 414 -101 335 -89 414 -101 "},"\\":{"ha":593,"x_min":0,"x_max":0,"o":"m 574 -12 l 397 -74 l 38 956 l 215 1015 "},"]":{"ha":451,"x_min":0,"x_max":0,"o":"m 38 1028 b 228 1022 60 1028 121 1022 b 394 1026 321 1022 394 1026 l 404 1018 b 390 415 404 886 390 785 b 404 -199 390 44 404 -68 l 394 -208 b 224 -203 394 -208 322 -203 b 38 -208 125 -203 56 -208 l 38 -101 b 153 -57 38 -101 115 -89 b 199 410 193 -22 199 44 b 151 876 199 775 193 842 b 38 919 114 907 38 919 "},"^":{"ha":650,"x_min":0,"x_max":0,"o":"m 243 981 l 401 981 l 586 672 l 438 572 b 306 753 347 726 331 753 b 153 567 281 753 257 725 l 63 626 "},"_":{"ha":531,"x_min":0,"x_max":0,"o":"m -6 0 l 189 13 b 535 0 343 7 365 -14 l 535 -144 l 340 -157 b -6 -144 188 -150 164 -131 "},"‘":{"ha":394,"x_min":0,"x_max":0,"o":"m 340 1053 b 335 715 292 885 300 846 l 92 628 b 36 799 58 668 36 733 l 222 1106 "},"a":{"ha":707,"x_min":0,"x_max":0,"o":"m 826 176 l 494 -67 b 375 75 424 -49 385 6 l 169 -58 b -10 183 53 -24 -10 72 b 188 386 -10 288 46 343 b 361 457 289 417 361 421 b 331 493 361 467 356 481 b 203 518 296 510 242 518 b 39 474 149 518 114 503 l -10 586 l 278 756 b 647 607 450 756 529 682 b 631 329 649 513 631 411 b 681 225 631 254 646 225 b 785 257 715 225 785 257 m 360 328 b 290 251 317 314 290 300 b 326 185 290 213 306 185 b 356 206 336 185 349 192 b 360 328 364 221 364 243 "},"b":{"ha":688,"x_min":0,"x_max":0,"o":"m 514 657 b 706 338 629 568 706 447 b 333 -54 706 218 617 146 b 35 53 182 -54 106 -1 b 71 825 7 483 7 717 b 369 1089 124 915 265 1000 b 665 879 533 1089 665 999 b 514 657 665 792 596 740 m 303 446 b 288 363 292 446 288 428 b 318 228 288 278 294 254 b 392 189 343 201 374 189 b 413 224 404 189 413 196 b 303 446 413 307 333 446 m 335 867 b 292 592 304 867 296 821 b 413 785 353 656 413 744 b 335 867 413 821 364 867 "},"c":{"ha":539,"x_min":0,"x_max":0,"o":"m 613 193 l 307 -60 b -8 342 158 -43 -8 117 b 319 742 -8 546 129 588 b 572 686 485 742 572 686 b 507 444 565 543 507 444 b 299 494 479 444 363 494 b 267 461 275 494 267 488 b 446 226 267 379 349 226 b 568 269 482 226 525 247 "},"d":{"ha":733,"x_min":0,"x_max":0,"o":"m 863 181 l 526 -71 b 403 108 472 -60 419 33 l 211 -62 b -22 321 57 -3 -22 171 b 276 708 -22 504 93 600 b 374 699 306 708 364 700 b 299 872 374 782 374 872 b 240 865 278 872 240 865 l 217 968 l 608 1110 b 699 1025 653 1097 671 1057 b 667 451 699 989 667 743 b 725 226 667 279 678 226 b 817 257 761 226 817 257 m 349 210 b 365 218 353 210 360 213 b 376 338 372 226 376 251 b 350 475 376 424 372 458 b 285 496 335 486 307 496 b 254 447 263 496 254 486 b 349 210 254 338 319 210 "},"e":{"ha":626,"x_min":0,"x_max":0,"o":"m 665 179 l 301 -60 b -8 350 108 -40 -8 171 b 372 749 -8 560 154 614 b 644 444 522 749 651 582 l 324 293 b 438 208 354 244 394 208 b 625 268 493 208 625 268 m 261 476 b 278 388 261 453 267 421 b 354 450 326 410 354 428 b 286 519 354 476 313 519 b 261 476 271 519 261 507 "},"f":{"ha":453,"x_min":0,"x_max":0,"o":"m 557 544 l 375 469 b 408 58 386 265 408 114 l 49 -87 b -8 19 6 -43 -8 19 b 81 254 76 106 81 93 b -24 479 81 461 74 467 b -19 603 -33 546 -19 603 b 64 601 10 603 38 601 b 418 1074 64 814 222 871 b 638 1032 561 1075 638 1032 b 619 742 635 888 619 742 l 524 738 b 436 810 511 788 496 810 b 379 776 399 810 389 801 b 371 669 372 758 371 742 l 371 610 b 529 646 429 617 478 628 "},"g":{"ha":699,"x_min":0,"x_max":0,"o":"m 763 526 b 646 488 706 499 646 488 b 674 99 646 335 674 185 b 289 -354 674 -111 510 -208 b -65 -174 39 -381 -65 -315 b -18 8 -65 -78 -18 8 l 92 -10 b 296 -135 83 -94 176 -135 b 407 -33 378 -135 407 -115 b 386 125 407 29 390 99 l 232 -19 b -14 325 51 39 -14 174 b 315 744 -14 518 92 615 b 665 629 519 744 569 629 b 743 640 696 629 743 640 m 256 443 b 336 244 256 331 306 244 b 357 258 342 244 350 247 b 368 374 364 271 368 297 b 344 496 368 449 364 476 b 292 521 331 510 308 521 b 256 443 269 521 256 501 "},"h":{"ha":794,"x_min":0,"x_max":0,"o":"m 686 890 b 311 576 686 772 526 703 l 311 421 b 589 660 393 524 472 660 b 740 594 643 660 672 631 b 715 321 742 543 715 415 b 875 272 715 207 753 217 l 921 196 l 567 -71 b 424 64 493 -51 463 -1 b 436 253 424 104 436 196 b 410 326 436 303 426 326 b 278 -35 375 326 319 229 b -1 28 169 -69 17 -44 b 31 168 22 86 31 129 b 14 582 31 222 14 469 b 349 1089 14 832 97 921 b 686 890 539 1090 686 1004 m 318 871 b 310 711 310 846 310 807 b 433 826 371 754 433 793 b 343 892 433 858 374 892 b 318 871 331 892 322 886 "},"i":{"ha":457,"x_min":0,"x_max":0,"o":"m 297 1136 b 478 922 297 1136 407 1156 l 121 775 l 53 876 m 583 194 l 201 -69 b 39 54 99 -54 39 54 b 74 349 39 63 74 168 b -8 508 74 485 54 514 l -28 613 l 285 753 b 418 656 349 740 367 699 b 367 319 413 569 367 444 b 538 272 367 226 392 204 "},"j":{"ha":433,"x_min":0,"x_max":0,"o":"m -37 -331 b 86 183 69 -92 86 -49 b 21 511 86 435 67 511 b -10 507 10 511 -10 507 l -29 613 l 279 753 b 399 665 331 744 347 710 b 389 -18 401 583 356 468 l 82 -404 m 232 1111 b 432 922 232 1111 338 1129 l 69 775 l 18 864 "},"k":{"ha":742,"x_min":0,"x_max":0,"o":"m 868 193 l 569 -69 b 343 196 504 -69 436 21 b 269 -35 343 196 286 100 b -1 28 160 -69 17 -44 b 31 167 22 88 31 129 b 14 582 31 221 14 469 b 349 1090 14 832 96 919 b 665 907 536 1090 665 1021 b 310 583 665 782 510 665 l 310 374 b 582 700 415 567 582 700 b 733 671 635 700 667 686 b 638 401 771 567 728 401 b 568 414 613 401 585 414 b 535 378 549 414 535 394 b 608 250 535 353 567 294 b 685 203 639 217 664 203 b 819 268 717 203 763 235 m 318 867 b 308 703 310 842 308 789 b 429 821 376 743 429 783 b 349 886 429 853 388 886 b 318 867 329 886 322 878 "},"l":{"ha":496,"x_min":0,"x_max":0,"o":"m 618 207 l 256 -68 b 11 485 60 -33 11 213 b 319 1092 11 874 111 900 b 646 885 503 1092 646 1011 b 311 494 646 746 474 661 b 424 235 325 346 358 235 b 572 285 468 235 572 285 m 301 743 b 303 631 301 706 301 667 b 388 796 365 726 388 771 b 326 868 388 826 354 868 b 301 743 307 868 301 846 "},"m":{"ha":1196,"x_min":0,"x_max":0,"o":"m 294 753 b 394 676 350 736 358 711 b 376 510 394 656 379 579 b 603 750 447 644 522 750 b 769 686 649 750 703 715 b 753 510 769 664 756 576 b 965 750 822 644 888 750 b 1146 675 1015 750 1078 706 b 1115 326 1146 546 1115 421 b 1157 224 1115 267 1128 224 b 1275 272 1186 224 1275 272 l 1321 196 l 967 -71 b 817 61 897 -56 854 -4 b 832 306 817 125 832 211 b 807 410 832 375 824 410 b 751 258 779 410 751 313 b 772 83 751 213 772 97 l 490 -71 b 407 39 490 -71 442 -50 b 461 268 443 81 461 89 b 436 410 461 368 456 410 b 376 261 407 410 376 318 b 401 82 376 208 401 97 l 78 -83 b 10 36 78 -83 26 -36 b 78 279 65 81 78 121 b 11 511 78 453 63 511 b -8 508 0 511 -8 508 l -29 613 "},"n":{"ha":836,"x_min":0,"x_max":0,"o":"m -29 613 l 289 753 b 389 676 315 753 353 715 b 372 499 389 654 372 557 b 600 744 444 614 485 744 b 786 686 665 744 718 703 b 756 322 786 556 756 425 b 797 232 756 260 767 232 b 915 272 835 232 915 272 l 961 196 l 607 -71 b 464 64 533 -60 513 -1 b 472 274 464 103 472 207 b 439 410 472 361 458 410 b 371 235 415 410 371 336 b 396 63 371 158 396 68 l 99 -83 b 10 35 99 -83 39 -53 b 78 300 68 86 78 119 b 24 513 78 479 68 513 b -8 508 8 513 -8 508 "},"o":{"ha":668,"x_min":0,"x_max":0,"o":"m 342 757 b 706 440 549 747 706 603 b 336 -112 706 257 504 71 b 214 -26 253 -83 214 -26 b 203 64 244 15 246 31 b -26 400 99 146 -26 240 b 342 757 -26 569 114 643 m 261 519 b 235 493 247 519 235 508 b 422 260 235 439 388 260 b 449 294 432 260 449 274 b 261 519 449 354 314 519 "},"p":{"ha":728,"x_min":0,"x_max":0,"o":"m -29 613 l 264 753 b 335 606 264 753 325 732 l 483 756 b 743 458 628 736 743 629 b 458 -7 743 293 635 144 l 346 3 b 376 -228 357 -156 376 -189 l 25 -397 l -31 -296 b 88 -17 83 -196 88 -207 l 88 24 l 11 31 b 39 301 7 121 -6 224 b 83 296 50 301 65 299 b 15 513 76 442 58 513 b -10 508 6 513 -10 508 m 339 236 b 413 226 369 231 396 226 b 454 286 443 226 454 243 b 365 464 454 386 394 464 b 346 436 353 464 349 450 b 339 250 340 403 339 322 "},"q":{"ha":693,"x_min":0,"x_max":0,"o":"m 214 -51 b -21 326 67 3 -21 176 b 353 747 -21 542 157 622 b 658 696 489 747 578 708 b 640 222 658 586 640 463 b 672 -228 640 -99 672 -175 l 321 -397 l 265 -306 b 400 101 392 -201 399 -235 m 264 454 b 346 233 264 356 317 233 b 365 243 350 233 358 236 b 378 343 375 254 378 281 b 356 492 378 443 371 475 b 303 513 343 506 324 513 b 264 454 276 513 264 501 "},"r":{"ha":621,"x_min":0,"x_max":0,"o":"m 69 -83 b 10 35 69 -83 18 -40 b 78 256 65 78 78 71 b 14 511 78 460 63 511 b -8 508 3 511 -8 508 l -29 613 l 258 754 b 376 697 300 754 335 726 b 368 522 376 679 368 586 b 481 746 431 671 481 746 b 656 697 586 746 656 697 b 614 367 647 535 614 367 l 519 365 b 454 439 508 408 490 439 b 375 282 399 439 375 368 b 411 47 375 175 411 71 "},"s":{"ha":507,"x_min":0,"x_max":0,"o":"m 36 239 b 265 151 86 217 147 151 b 306 168 294 151 306 156 b -37 453 306 238 -37 247 b 243 749 -37 593 122 660 b 514 713 431 747 514 713 b 492 458 514 713 514 564 l 390 465 b 219 547 388 522 296 547 b 181 532 189 547 181 543 b 540 249 181 460 540 469 b 267 -49 540 119 417 42 b -39 4 64 -49 -39 4 b 36 239 -39 4 -51 167 "},"t":{"ha":575,"x_min":0,"x_max":0,"o":"m 392 461 l 392 449 b 425 238 392 292 394 260 b 468 222 436 229 453 222 b 585 265 506 222 585 265 l 631 186 l 214 -56 b 74 58 214 -56 128 -31 b 79 332 74 114 79 265 b -18 479 79 442 64 478 l -15 603 l 72 603 l 72 717 l 389 921 l 458 853 b 393 596 413 790 397 749 b 588 624 463 596 517 601 l 614 525 l 456 461 "},"u":{"ha":835,"x_min":0,"x_max":0,"o":"m 961 196 l 614 -62 b 467 38 556 -62 522 -15 l 461 183 b 235 -47 376 33 311 -47 b 60 57 179 -47 115 -4 b 74 351 60 100 74 246 b -8 508 74 486 51 514 l -29 613 l 281 753 b 388 672 317 744 357 706 b 357 332 382 599 357 392 b 385 265 357 288 371 265 b 443 465 413 265 443 358 b 432 639 443 531 432 617 l 740 754 b 796 651 740 754 786 711 b 750 383 779 625 750 575 b 799 232 750 274 760 232 b 915 272 836 232 915 272 "},"v":{"ha":696,"x_min":0,"x_max":0,"o":"m 342 650 l 615 758 b 713 483 658 728 713 593 b 390 -36 713 301 563 186 b 81 332 185 -26 174 43 b -67 503 26 499 15 517 l -96 607 l 168 749 b 294 667 231 746 243 706 b 446 240 356 415 415 240 b 482 321 460 240 482 278 b 390 556 482 383 435 556 b 371 551 383 556 371 551 "},"w":{"ha":1068,"x_min":0,"x_max":0,"o":"m 717 647 l 979 771 b 1078 546 981 771 1078 693 b 854 -51 1078 444 1032 317 b 521 200 625 -50 603 10 l 389 -61 b 89 210 186 -61 125 22 b -15 507 61 356 81 511 l -46 611 l 250 754 b 354 660 296 754 303 708 b 414 260 346 483 388 260 b 453 350 426 260 453 314 b 378 610 453 400 400 514 l 596 722 b 699 589 647 714 663 660 b 694 543 699 589 694 561 b 790 251 694 471 763 251 b 826 414 808 251 826 343 b 763 556 826 496 801 556 b 751 554 757 556 751 554 "},"x":{"ha":657,"x_min":0,"x_max":0,"o":"m 531 764 b 713 622 583 764 708 664 b 499 365 636 560 542 456 b 740 239 606 193 622 181 l 785 154 l 443 -78 b 274 144 358 -78 340 18 l 110 -83 b -60 63 38 -83 -57 22 b 168 300 14 132 118 222 b -37 496 68 489 49 500 l -75 608 l 264 757 b 393 517 332 746 326 640 "},"y":{"ha":676,"x_min":0,"x_max":0,"o":"m 303 619 l 553 758 b 697 476 626 710 697 581 b 524 93 697 407 665 301 b 76 -390 326 -197 193 -279 b -136 -371 -86 -412 -136 -371 l -135 -40 l -10 -33 b 121 -124 4 -100 22 -124 b 218 -68 189 -124 218 -112 b 113 233 218 -4 160 122 b -65 497 1 492 -8 507 l -103 606 l 146 751 b 271 682 186 751 221 710 b 428 238 285 604 326 440 b 453 351 440 268 453 308 b 426 468 453 394 440 438 b 347 522 403 521 381 531 "},"z":{"ha":567,"x_min":0,"x_max":0,"o":"m 679 231 l 492 -8 b 217 0 363 -8 286 0 b 17 -26 92 0 17 -26 b -64 82 17 -26 -35 17 b 197 489 65 307 197 439 b 143 508 197 503 188 508 b -10 468 75 508 38 496 l -75 574 l 110 721 b 358 706 214 721 267 706 b 538 731 476 706 538 731 b 626 611 538 731 589 688 b 326 211 479 375 326 254 b 357 200 326 203 333 200 b 588 315 463 200 522 257 "},"{":{"ha":494,"x_min":0,"x_max":0,"o":"m 1 496 b 151 669 1 496 151 494 b 149 792 151 694 149 750 b 307 1028 149 889 164 949 l 488 1028 l 494 933 b 375 679 336 899 381 804 b 226 464 369 568 325 490 b 358 229 303 428 346 342 b 494 -117 374 83 329 -71 l 494 -208 l 294 -208 b 153 33 169 -144 153 -72 b 156 176 153 76 156 149 b 1 403 156 386 1 403 "},"|":{"ha":429,"x_min":0,"x_max":0,"o":"m 326 -321 l 139 -321 l 139 1056 l 326 1056 "},"}":{"ha":544,"x_min":0,"x_max":0,"o":"m 544 429 b 394 213 544 429 394 426 b 397 65 394 183 397 114 b 242 -212 397 -51 381 -122 l 56 -212 l 51 -115 b 176 206 211 -72 168 53 b 321 463 185 342 232 435 b 186 660 238 494 197 563 b 53 935 172 781 213 899 l 53 1028 l 250 1028 b 393 815 378 969 393 914 b 392 703 393 786 392 719 b 544 522 392 532 544 522 "},"~":{"ha":771,"x_min":0,"x_max":0,"o":"m 718 475 l 508 301 b 242 397 404 301 317 397 b 126 349 210 397 167 379 l 53 433 l 263 608 b 529 511 365 608 453 511 b 644 558 563 511 603 529 "},"¡":{"ha":568,"x_min":0,"x_max":0,"o":"m 428 493 b 561 -40 458 279 503 79 l 219 -206 b 90 39 167 -176 119 -131 l 203 506 m 107 700 b 335 910 174 803 233 867 b 492 656 424 897 474 788 l 193 556 "},"¢":{"ha":647,"x_min":0,"x_max":0,"o":"m 622 215 l 418 69 l 406 -103 l 264 -87 l 290 54 b 46 406 164 100 46 224 b 332 771 46 579 154 628 b 378 769 347 771 364 769 l 390 904 l 531 888 l 504 750 b 601 718 565 736 601 718 b 536 500 599 589 536 500 b 469 517 525 500 500 507 l 440 275 b 482 267 454 269 469 267 b 578 293 522 267 578 296 m 275 493 b 332 354 275 442 299 393 l 356 544 b 324 547 344 546 333 547 b 275 493 290 547 275 533 "},"£":{"ha":724,"x_min":0,"x_max":0,"o":"m 613 393 l 457 283 b 358 289 436 283 401 286 b 422 169 361 176 374 169 b 661 265 538 169 583 208 l 738 208 l 564 -12 b 269 0 535 -12 343 0 b 42 -39 142 0 42 -39 l -1 78 b 97 246 74 128 97 157 b 96 304 97 258 97 281 b 13 306 65 306 38 306 l 4 456 b 93 460 33 458 64 458 b 458 860 99 661 225 719 b 647 831 576 860 647 831 b 624 578 647 692 624 578 l 514 576 b 426 631 508 606 472 631 b 375 599 396 631 383 619 b 358 457 365 574 361 526 b 572 482 424 460 493 467 "},"⁄":{"ha":108,"x_min":0,"x_max":0,"o":"m 424 1006 l 547 892 l 104 425 l -315 -61 l -437 54 l 6 521 "},"¥":{"ha":839,"x_min":0,"x_max":0,"o":"m 797 247 l 646 169 b 538 174 615 169 579 172 b 594 118 547 136 567 118 b 647 122 608 118 647 122 l 661 18 b 174 -44 661 18 422 4 l 147 58 b 204 110 147 58 188 81 b 221 169 208 117 218 138 b 63 147 171 165 118 157 l 47 236 l 215 296 b 206 329 213 306 208 317 b 63 308 160 324 113 318 l 47 397 l 161 438 b 136 490 153 454 144 471 b 19 636 81 610 57 636 b -43 628 0 636 -43 628 l -68 735 l 313 876 b 489 453 385 840 388 679 b 539 614 510 496 539 574 b 476 668 539 647 518 668 b 439 664 457 668 439 664 l 422 775 l 864 871 l 886 758 b 618 461 821 733 771 690 b 767 492 661 468 710 478 l 793 408 l 646 331 b 543 335 617 331 582 333 b 533 294 539 322 535 310 b 767 331 599 299 675 308 "},"§":{"ha":756,"x_min":0,"x_max":0,"o":"m 71 321 b 213 517 71 394 125 454 b 82 679 142 550 82 599 b 375 968 82 815 251 894 b 661 900 568 969 661 900 b 617 703 650 799 617 703 b 351 769 604 703 446 769 b 304 749 315 769 304 760 b 694 469 304 681 694 675 b 550 267 694 392 639 329 b 707 88 633 229 707 178 b 413 -201 707 -51 532 -132 b 96 -119 208 -203 96 -119 b 146 72 110 -22 146 72 b 431 -4 161 71 329 -4 b 478 17 464 -4 478 4 b 71 321 478 83 71 119 m 311 392 b 393 326 311 364 344 344 b 450 396 418 343 450 369 b 364 458 450 422 413 440 b 311 392 340 443 311 418 "},"'":{"ha":364,"x_min":0,"x_max":0,"o":"m 115 569 b 68 826 115 569 103 700 l 68 942 l 276 963 b 296 839 276 961 296 911 l 215 568 "},"“":{"ha":567,"x_min":0,"x_max":0,"o":"m 288 1054 b 265 807 260 933 254 876 l 407 1090 l 511 1053 b 507 710 471 885 478 842 l 304 632 b 272 704 290 651 279 676 l 82 632 b 38 799 54 672 38 733 l 183 1092 "},"«":{"ha":738,"x_min":0,"x_max":0,"o":"m 397 668 b 303 422 367 606 303 504 b 401 110 303 338 374 163 l 289 44 l 26 386 l 281 738 m 692 668 b 597 422 661 608 597 504 b 697 110 597 338 667 164 l 583 44 l 321 386 l 575 738 "},"‹":{"ha":458,"x_min":0,"x_max":0,"o":"m 413 679 b 314 415 381 617 314 501 b 417 99 314 328 385 158 l 299 31 l 26 386 l 290 753 "},"›":{"ha":458,"x_min":0,"x_max":0,"o":"m 68 110 b 168 374 100 172 168 288 b 64 690 168 461 97 631 l 183 760 l 456 403 l 190 36 "},"ﬁ":{"ha":878,"x_min":0,"x_max":0,"o":"m 1004 194 l 622 -69 b 460 54 521 -54 460 54 b 494 351 460 64 494 161 b 396 499 494 478 479 526 l 371 490 b 413 58 383 292 413 110 l 49 -87 b -8 19 6 -43 -8 19 b 81 253 76 106 81 93 b -24 478 81 460 74 465 b -19 601 -33 544 -19 601 b 68 600 11 601 40 600 b 492 1113 69 846 296 926 b 758 1071 663 1115 758 1071 b 739 793 756 926 739 793 l 622 793 b 504 849 596 835 544 849 b 392 797 461 849 419 833 b 365 650 371 769 365 742 l 365 614 b 475 646 388 617 449 633 l 492 654 l 706 753 b 839 654 769 740 788 699 b 789 319 835 569 789 444 b 958 274 789 226 814 204 "},"–":{"ha":667,"x_min":0,"x_max":0,"o":"m 614 415 l 426 293 b 54 288 229 293 151 313 l 10 408 l 199 529 b 571 535 392 529 474 510 "},"†":{"ha":760,"x_min":0,"x_max":0,"o":"m 724 599 l 606 532 l 479 532 l 468 249 l 399 -54 l 264 -64 l 236 532 l 44 533 l 49 671 b 231 660 114 671 171 665 l 218 931 l 486 964 l 497 953 l 485 657 b 696 688 544 663 613 671 "},"‡":{"ha":760,"x_min":0,"x_max":0,"o":"m 728 325 l 613 258 l 465 258 l 475 -39 l 257 -60 l 265 258 l 60 260 l 64 399 b 268 385 138 399 200 390 l 256 565 l 60 567 l 64 704 b 247 693 129 704 186 697 l 231 931 l 496 964 l 507 953 l 486 690 b 700 722 547 696 617 706 l 728 632 l 613 565 l 476 565 l 463 382 b 700 415 529 386 606 396 "},"·":{"ha":492,"x_min":0,"x_max":0,"o":"m 53 315 b 225 557 101 424 133 476 b 439 321 328 557 401 450 l 157 183 "},"•":{"ha":569,"x_min":0,"x_max":0,"o":"m 218 183 b 54 389 147 226 86 303 b 294 692 106 533 167 617 b 558 382 432 688 528 549 b 218 183 468 299 347 224 "},"‚":{"ha":351,"x_min":0,"x_max":0,"o":"m 50 -150 b 56 189 99 19 90 57 l 299 276 b 354 104 332 235 354 169 l 168 -201 "},"„":{"ha":524,"x_min":0,"x_max":0,"o":"m 54 -149 b 58 193 94 19 88 61 l 261 272 b 293 197 275 251 285 226 l 483 272 b 528 104 511 231 528 171 l 382 -187 l 278 -150 b 300 96 306 -29 310 26 l 158 -187 "},"”":{"ha":567,"x_min":0,"x_max":0,"o":"m 42 664 b 46 1006 81 832 75 874 l 249 1085 b 279 1010 261 1064 272 1039 l 471 1085 b 514 917 499 1043 514 983 l 368 625 l 265 663 b 288 908 293 782 297 839 l 144 625 "},"»":{"ha":738,"x_min":0,"x_max":0,"o":"m 69 121 b 163 368 100 181 163 285 b 64 679 163 453 93 625 l 178 746 l 440 403 l 185 51 m 364 121 b 458 368 394 183 458 285 b 358 679 458 453 388 626 l 472 746 l 735 403 l 479 51 "},"…":{"ha":1421,"x_min":0,"x_max":0,"o":"m 69 93 b 279 326 135 201 175 253 b 471 51 386 313 447 190 l 161 -57 m 535 93 b 743 326 600 201 639 253 b 935 51 850 313 913 190 l 626 -57 m 999 93 b 1208 326 1064 201 1104 253 b 1400 51 1315 313 1376 190 l 1092 -57 "},"‰":{"ha":1700,"x_min":0,"x_max":0,"o":"m 1467 -15 b 1196 215 1357 -15 1215 88 b 954 -15 1156 129 1061 58 b 681 246 836 -15 681 104 b 1019 643 681 401 871 510 l 1101 567 b 1096 500 1064 528 1068 524 b 1214 335 1157 447 1203 407 b 1532 643 1268 446 1414 536 l 1614 567 b 1608 500 1576 528 1581 524 b 1729 307 1679 439 1729 393 b 1467 -15 1729 176 1610 83 m 285 374 b 11 633 167 374 11 492 b 350 1032 11 789 200 897 l 432 954 b 426 888 394 915 399 911 b 547 696 497 826 547 781 b 285 374 547 563 424 469 m 990 1006 l 1114 892 l 671 425 l 251 -61 l 129 54 l 572 521 m 1514 174 b 1540 210 1528 174 1540 183 b 1407 379 1540 281 1449 379 b 1382 343 1393 379 1382 369 b 1514 174 1382 271 1469 174 m 1001 174 b 1028 210 1015 174 1028 183 b 894 379 1028 281 936 379 b 869 343 881 379 869 369 b 1001 174 869 271 957 174 m 332 561 b 357 596 346 561 357 571 b 225 768 357 668 267 768 b 200 733 211 768 200 758 b 332 561 200 661 286 561 "},"¿":{"ha":613,"x_min":0,"x_max":0,"o":"m 238 563 b 128 731 164 610 128 731 b 360 889 131 736 228 842 b 483 692 454 857 483 692 b 238 563 378 622 238 563 m 628 -85 l 371 -257 b -18 -69 110 -257 -18 -69 b 314 279 -18 200 314 229 b 219 313 314 296 281 313 b 71 296 157 313 71 296 l 28 390 l 308 553 b 571 339 467 553 571 433 b 304 75 571 188 304 140 b 429 10 304 46 357 10 b 560 43 499 10 560 43 "},"`":{"ha":694,"x_min":0,"x_max":0,"o":"m 379 713 b 86 1008 240 785 149 858 l 294 1115 l 486 806 "},"´":{"ha":694,"x_min":0,"x_max":0,"o":"m 206 803 l 399 1111 l 607 1006 b 314 708 544 854 451 781 "},"ˆ":{"ha":694,"x_min":0,"x_max":0,"o":"m 499 758 b 339 894 418 842 378 894 b 189 764 310 894 272 863 l 85 842 l 325 1158 l 376 1158 l 608 849 "},"˜":{"ha":694,"x_min":0,"x_max":0,"o":"m 653 963 l 449 769 b 257 824 350 769 315 824 b 140 769 224 824 186 807 l 57 861 l 260 1056 b 453 1001 360 1056 394 1001 b 568 1056 486 1001 524 1018 "},"¯":{"ha":694,"x_min":0,"x_max":0,"o":"m 103 964 l 592 964 l 592 811 l 103 811 "},"˘":{"ha":694,"x_min":0,"x_max":0,"o":"m 264 1053 b 347 938 274 976 299 938 b 429 1053 401 938 422 989 l 597 1053 b 347 790 589 947 540 790 b 97 1053 201 790 99 881 "},"˙":{"ha":694,"x_min":0,"x_max":0,"o":"m 169 904 b 347 1106 229 968 292 1038 b 531 890 433 1113 499 1013 l 263 768 "},"¨":{"ha":694,"x_min":0,"x_max":0,"o":"m 64 913 l 218 1100 b 368 983 293 1104 342 1036 l 469 1100 b 653 878 604 1108 653 878 l 413 771 l 331 879 l 161 771 "},"˚":{"ha":694,"x_min":0,"x_max":0,"o":"m 144 925 b 385 1132 144 1057 238 1132 b 610 940 524 1132 610 1065 b 367 735 610 808 515 735 b 144 925 229 735 144 799 m 429 932 b 375 1006 429 982 400 1006 b 324 935 347 1006 324 979 b 378 860 324 885 353 860 b 429 932 406 860 429 888 "},"¸":{"ha":694,"x_min":0,"x_max":0,"o":"m 404 6 b 382 -78 404 6 382 -49 b 474 -278 382 -151 528 -136 l 264 -392 l 210 -303 b 281 -226 210 -303 281 -267 b 213 -128 281 -193 236 -171 l 301 26 "},"˝":{"ha":694,"x_min":0,"x_max":0,"o":"m 72 849 l 236 1108 l 419 1033 b 163 772 360 900 281 832 m 357 849 l 521 1108 l 704 1033 b 446 772 646 900 564 832 "},"ˇ":{"ha":694,"x_min":0,"x_max":0,"o":"m 196 1085 b 356 949 275 1001 317 949 b 506 1079 385 949 422 981 l 608 1001 l 368 685 l 317 685 l 85 994 "},"—":{"ha":1332,"x_min":0,"x_max":0,"o":"m 1278 415 l 1089 293 b 56 288 576 293 204 322 l 13 408 l 201 529 b 1233 535 774 529 1067 496 "},"Æ":{"ha":1063,"x_min":0,"x_max":0,"o":"m 1074 504 l 890 407 b 779 413 871 407 828 410 b 876 203 779 239 789 203 b 1121 310 960 203 1022 236 l 1183 244 l 961 -12 b 731 0 935 -12 833 0 b 453 -43 621 0 560 -14 l 413 96 b 458 153 429 113 450 131 b 478 407 471 185 476 258 l 311 394 b 282 214 293 315 282 251 b 371 157 282 164 301 157 l 389 42 l 28 -75 b -51 93 28 -75 -36 -43 b 164 501 -7 128 60 228 b 235 742 221 651 235 711 b 65 736 235 771 222 786 l 33 849 l 260 956 b 692 942 308 956 460 942 b 1081 968 1011 942 1081 968 l 1119 867 l 926 726 b 828 738 911 726 863 738 b 788 710 804 738 792 732 b 779 569 783 689 781 631 b 1046 608 857 567 936 568 m 403 703 b 356 563 383 651 369 613 l 478 568 b 449 768 476 735 472 768 b 403 703 431 768 419 749 "},"ª":{"ha":619,"x_min":0,"x_max":0,"o":"m 635 640 l 421 499 b 331 600 367 510 338 549 l 178 504 b 39 676 86 526 39 593 b 189 821 39 754 81 789 b 321 874 269 844 321 847 b 213 921 321 897 278 921 b 86 892 158 921 117 904 l 47 978 l 258 1085 b 529 982 383 1085 440 1036 b 518 765 531 915 518 832 b 553 689 518 707 528 689 b 601 701 572 689 601 701 m 322 783 b 258 722 283 771 258 761 b 289 674 258 696 269 674 b 314 690 297 674 307 678 b 322 783 321 703 322 722 "},"Ł":{"ha":640,"x_min":0,"x_max":0,"o":"m 633 525 l 494 421 b 444 413 478 417 461 415 b 524 208 444 232 456 208 b 715 293 600 208 633 239 l 779 228 l 601 -12 b 367 0 543 -12 483 0 b 88 -43 228 0 185 -18 l 43 94 b 99 154 69 108 92 121 b 114 364 106 186 111 278 b 1 328 76 354 39 343 l -46 419 l 99 518 b 117 521 104 518 110 519 b 47 740 115 722 83 740 b 4 736 29 740 4 736 l -7 865 b 549 979 -7 865 247 914 l 571 858 b 474 786 517 839 489 825 b 446 576 460 750 450 675 b 585 625 489 589 535 604 "},"Ø":{"ha":794,"x_min":0,"x_max":0,"o":"m 456 -36 b 265 63 456 -36 367 -1 l 172 -104 l 18 -17 l 136 161 b -28 490 43 249 -28 347 b 429 994 -28 751 206 857 b 593 954 486 994 542 979 l 672 1094 l 825 1008 l 724 853 b 832 576 790 778 832 679 b 456 -36 832 353 635 122 m 318 719 b 246 629 278 719 246 674 b 315 463 246 588 275 524 l 425 658 b 318 719 388 696 347 719 m 553 400 b 524 518 553 439 540 479 l 418 333 b 488 288 446 306 471 288 b 553 400 513 288 553 329 "},"Œ":{"ha":1086,"x_min":0,"x_max":0,"o":"m 1100 504 l 917 401 b 803 408 896 401 853 406 b 900 203 803 240 811 203 b 1146 310 990 203 1054 242 l 1207 244 l 1010 7 b 574 71 875 -10 643 -51 b 371 -129 499 -14 371 -129 l 239 -42 b 228 101 271 14 282 51 b -28 489 164 161 -28 272 b 458 994 -28 751 250 858 b 672 911 600 994 672 911 l 758 950 b 893 942 776 950 835 942 b 1104 968 999 942 1104 968 l 1143 867 l 950 726 b 851 738 935 726 889 738 b 813 710 825 738 817 732 b 803 571 807 683 804 632 b 1071 608 881 567 958 568 m 490 275 b 522 301 506 275 517 286 b 535 404 531 321 535 369 b 324 719 535 589 413 719 b 253 633 278 719 253 685 b 490 275 253 497 421 275 "},"º":{"ha":671,"x_min":0,"x_max":0,"o":"m 329 1085 b 596 853 481 1078 596 972 b 325 449 596 719 449 583 b 235 511 264 471 235 511 b 226 578 258 543 258 553 b 58 824 150 639 58 707 b 329 1085 58 947 163 1001 m 271 911 b 251 892 260 911 251 903 b 389 722 251 853 364 722 b 407 747 396 722 407 732 b 271 911 407 790 308 911 "},"æ":{"ha":949,"x_min":0,"x_max":0,"o":"m 990 172 l 654 -58 b 407 114 544 -50 460 19 l 224 -43 b -11 168 54 -43 -11 63 b 344 396 -11 350 178 372 b 236 518 335 489 299 518 b 63 483 168 518 63 483 l 22 586 l 319 753 b 561 633 411 753 494 708 b 735 749 613 668 671 704 b 981 456 869 749 992 579 l 653 306 b 775 213 686 253 731 213 b 951 261 822 213 951 261 m 311 179 b 368 211 328 179 349 192 b 353 296 360 239 356 267 b 274 238 290 282 274 269 b 311 179 274 208 286 179 m 601 467 b 611 400 601 446 606 422 b 696 461 663 419 696 439 b 632 518 696 485 660 518 b 601 467 615 518 601 504 "},"ı":{"ha":457,"x_min":0,"x_max":0,"o":"m 583 194 l 201 -69 b 39 54 99 -54 39 54 b 74 349 39 63 74 168 b -8 508 74 485 54 514 l -28 613 l 285 753 b 418 656 349 740 367 699 b 367 319 413 569 367 444 b 538 272 367 226 392 204 "},"ł":{"ha":528,"x_min":0,"x_max":0,"o":"m 685 515 l 488 396 b 361 383 449 388 407 385 b 456 235 379 293 408 235 b 604 285 500 235 604 285 l 650 207 l 289 -68 b 47 347 125 -39 64 133 b -7 329 29 342 11 336 l -53 419 l 43 483 l 43 485 b 351 1092 43 874 143 900 b 679 885 535 1092 679 1011 b 403 551 679 763 546 682 b 635 615 478 564 554 582 m 335 743 b 336 631 335 706 335 667 b 419 796 399 726 419 771 b 358 868 419 826 386 868 b 335 743 339 868 335 846 "},"ø":{"ha":672,"x_min":0,"x_max":0,"o":"m 338 757 b 414 746 364 756 389 751 l 481 910 l 619 849 l 542 694 b 701 439 639 636 701 542 b 396 -43 701 251 499 69 b 251 28 396 -43 331 -18 l 189 -126 l 49 -65 l 136 107 b -31 403 47 181 -31 281 b 338 757 -31 568 113 643 m 457 301 b 410 403 457 328 438 365 l 360 286 b 421 249 385 264 408 249 b 457 301 436 249 457 272 m 256 531 b 218 489 235 531 218 510 b 265 393 218 467 238 431 l 313 503 b 256 531 290 519 269 531 "},"œ":{"ha":1029,"x_min":0,"x_max":0,"o":"m 1071 171 l 735 -58 b 497 97 632 -51 550 11 b 315 -117 446 28 385 -43 b 197 -21 314 -117 244 -76 b 193 74 242 33 233 43 b -26 403 119 128 -26 238 b 343 757 -26 569 122 646 b 603 606 460 757 551 690 b 815 749 663 649 735 692 b 1061 456 950 749 1071 579 l 735 304 b 854 213 767 251 811 213 b 1032 261 903 213 1032 261 m 261 519 b 235 492 247 519 235 507 b 399 282 235 443 365 282 b 428 329 411 282 428 307 b 261 519 428 390 308 519 m 682 465 b 692 399 682 447 685 422 b 775 461 742 419 775 439 b 713 518 775 485 740 518 b 682 465 696 518 682 506 "},"ß":{"ha":742,"x_min":0,"x_max":0,"o":"m 313 -8 b 318 50 313 -7 314 15 l 14 -78 b -43 29 14 -78 -21 -31 b 35 183 19 78 35 100 b 14 528 35 282 14 385 b 346 1088 14 835 110 854 b 714 779 571 1088 694 965 b 564 576 650 685 564 615 b 786 301 564 517 786 471 b 496 -49 786 156 624 33 b 313 -8 386 -49 313 -8 m 307 614 b 333 124 307 351 324 201 b 372 233 342 158 354 197 b 522 197 393 233 496 197 b 551 228 540 197 551 213 b 338 529 551 294 338 315 b 450 708 376 601 450 665 b 338 800 450 749 382 800 b 314 781 326 800 318 797 b 307 614 310 761 307 721 "},"¹":{"ha":546,"x_min":0,"x_max":0,"o":"m 511 594 b 118 513 511 594 346 572 l 92 608 b 161 656 92 608 138 619 b 186 828 181 685 186 735 b 139 938 186 921 181 938 b 47 924 101 938 47 924 l 22 1013 b 436 1138 271 1082 436 1138 l 469 1046 b 428 992 469 1046 443 1039 b 413 822 415 954 413 894 b 463 686 413 707 419 686 b 499 689 478 686 499 689 "},"™":{"ha":1135,"x_min":0,"x_max":0,"o":"m 1121 607 l 921 525 b 878 592 900 528 890 558 b 864 868 886 663 876 751 b 828 717 843 792 828 739 b 853 649 828 697 839 679 l 714 575 b 657 653 714 575 682 596 b 672 689 663 663 672 678 b 606 872 672 710 643 754 b 600 717 603 821 600 742 b 632 642 600 685 604 642 b 653 643 638 642 653 643 l 665 581 l 476 524 b 433 606 476 524 443 539 b 501 893 463 625 501 708 b 447 949 501 942 499 949 b 344 910 379 949 350 936 b 342 803 343 896 342 851 b 396 654 342 675 351 660 l 406 590 b 154 521 406 590 296 572 l 126 603 b 161 643 126 603 153 611 b 174 828 169 675 174 761 b 140 936 174 924 165 936 b 54 918 115 936 71 924 l 33 969 l 154 1043 b 419 1028 171 1043 326 1028 b 667 1046 519 1028 667 1046 b 775 847 715 1013 740 943 b 806 1011 801 924 806 964 b 1021 1060 900 1025 1021 1060 l 1042 983 b 1025 840 1019 963 1015 958 b 1079 660 1036 701 1046 660 b 1101 663 1088 660 1101 663 "},"Ð":{"ha":860,"x_min":0,"x_max":0,"o":"m -21 875 l 568 981 b 903 529 768 960 903 768 b 479 -10 903 217 674 118 b 307 0 449 -10 367 0 b 79 -42 218 0 147 -21 l 32 96 b 89 161 67 118 82 128 b 104 392 96 194 101 288 b 14 374 72 388 43 382 l -33 444 l 79 540 b 106 539 88 540 96 539 b -6 753 104 754 83 764 m 571 407 b 438 738 571 599 488 738 b 406 699 419 738 408 721 b 401 539 403 676 401 611 b 486 558 431 543 458 549 l 529 496 l 436 397 l 406 397 b 419 265 408 339 413 289 b 474 219 425 240 440 219 b 571 407 521 219 571 258 "},"½":{"ha":1263,"x_min":0,"x_max":0,"o":"m 499 460 b 126 379 499 460 344 438 l 101 475 b 165 521 101 475 144 488 b 188 686 183 550 188 600 b 143 799 188 785 182 799 b 60 785 106 799 60 785 l 36 875 b 428 1001 274 944 428 1001 l 460 908 b 424 868 460 908 435 900 b 407 672 408 825 407 707 b 454 553 407 569 419 553 b 488 556 468 553 488 556 m 1006 1006 l 1129 892 l 686 425 l 267 -61 l 144 54 l 588 521 m 1272 160 l 1140 -10 b 933 0 1107 -10 1008 0 b 774 -17 836 0 774 -17 b 724 100 739 46 726 93 b 975 321 826 171 975 269 b 881 385 975 353 921 385 b 769 349 838 385 769 349 l 725 432 l 943 571 b 1217 463 1114 571 1217 463 b 957 158 1217 289 957 186 b 994 153 957 154 964 153 b 1213 214 1126 153 1156 178 "},"Þ":{"ha":758,"x_min":0,"x_max":0,"o":"m 553 49 b 60 -60 553 49 253 11 l 15 61 b 65 140 47 90 58 108 b 89 507 71 167 89 292 b -3 747 89 722 71 747 b -31 746 -21 747 -31 746 l -42 879 b 399 989 179 931 399 989 l 444 853 b 401 744 414 831 403 810 l 583 882 b 856 588 713 871 856 731 b 447 235 856 439 703 307 l 397 239 b 482 165 410 186 433 165 b 540 169 503 165 540 169 m 397 581 b 386 418 389 542 386 475 b 469 404 414 410 444 404 b 529 475 508 404 529 417 b 442 625 529 554 492 625 b 397 581 421 625 406 611 "},"¼":{"ha":1208,"x_min":0,"x_max":0,"o":"m 1006 1006 l 1129 892 l 686 425 l 267 -61 l 144 54 l 588 521 m 894 -46 l 861 25 b 935 122 910 63 928 79 l 738 122 l 696 238 l 811 497 l 1043 583 l 1076 518 b 874 256 967 443 938 393 l 939 260 b 938 357 938 301 938 343 l 1107 382 l 1107 257 b 1231 279 1140 257 1179 261 l 1268 211 l 1138 122 l 1110 122 b 1115 43 1113 72 1114 51 m 499 460 b 126 379 499 460 344 438 l 101 475 b 165 521 101 475 144 488 b 188 686 183 550 188 600 b 143 799 188 785 182 799 b 60 785 106 799 60 785 l 36 875 b 428 1001 274 944 428 1001 l 460 908 b 424 868 460 908 435 900 b 407 672 408 825 407 707 b 454 553 407 569 419 553 b 488 556 468 553 488 556 "},"¦":{"ha":429,"x_min":0,"x_max":0,"o":"m 326 478 l 139 478 l 139 1056 l 326 1056 m 326 -321 l 139 -321 l 139 257 l 326 257 "},"°":{"ha":586,"x_min":0,"x_max":0,"o":"m 63 874 b 288 1097 63 994 160 1097 b 506 878 414 1097 506 996 b 282 654 506 757 410 654 b 63 874 156 654 63 754 m 363 874 b 282 963 363 922 328 963 b 206 878 239 963 206 925 b 286 789 206 829 242 789 b 363 874 329 789 363 826 "},"þ":{"ha":704,"x_min":0,"x_max":0,"o":"m 8 301 b 51 296 19 301 35 299 b 31 738 46 482 36 669 b -31 876 24 819 11 876 b -72 871 -44 876 -72 871 l -96 974 l 250 1110 b 340 1025 288 1097 308 1065 b 315 607 340 953 315 733 l 453 754 b 713 460 599 736 713 626 b 428 -7 713 297 604 146 l 315 3 b 346 -228 325 -151 346 -190 l -6 -397 l -61 -296 b 57 -18 53 -196 57 -207 l 57 24 l -19 31 b 8 301 -25 124 -36 222 m 314 456 b 308 236 310 371 308 300 b 381 226 339 231 365 226 b 424 286 414 226 424 246 b 335 464 424 385 365 464 b 314 456 326 464 318 458 "},"¾":{"ha":1229,"x_min":0,"x_max":0,"o":"m 1026 1006 l 1150 892 l 707 425 l 288 -61 l 165 54 l 608 521 m 56 860 l 240 965 b 518 875 453 965 518 875 b 369 711 518 808 471 749 b 542 588 486 696 542 649 b 257 369 542 499 424 425 b 50 408 142 369 50 408 l 88 575 l 168 565 b 246 521 167 533 203 521 b 325 551 286 521 325 532 b 135 628 325 579 235 640 l 121 711 b 288 772 236 733 288 754 b 215 801 288 788 257 801 b 83 776 161 801 83 776 m 915 -46 l 882 25 b 956 122 931 63 949 79 l 758 122 l 717 238 l 832 497 l 1064 583 l 1097 518 b 894 256 988 443 958 393 l 960 260 b 958 357 958 301 958 343 l 1128 382 l 1128 257 b 1251 279 1161 257 1200 261 l 1289 211 l 1158 122 l 1131 122 b 1136 43 1133 72 1135 51 "},"²":{"ha":551,"x_min":0,"x_max":0,"o":"m 556 689 l 428 519 b 226 528 396 519 294 528 b 68 511 131 528 68 511 b 19 628 39 564 19 628 b 265 851 119 700 265 800 b 171 918 265 885 210 918 b 63 881 131 918 63 881 l 19 964 l 233 1101 b 494 993 410 1101 494 993 b 247 686 494 819 247 714 b 285 681 247 682 253 681 b 499 743 411 681 440 703 "},"®":{"ha":838,"x_min":0,"x_max":0,"o":"m 396 1129 b 764 801 657 1129 764 964 b 424 429 764 617 626 513 b 56 756 186 428 56 564 b 396 1129 56 951 190 1047 m 415 1036 b 217 939 338 1036 263 1004 l 347 979 b 382 921 369 968 382 946 l 467 976 b 592 875 529 974 592 922 b 496 769 592 833 540 796 b 592 669 547 714 561 669 b 631 678 601 669 618 674 b 650 782 643 708 650 743 b 415 1036 650 924 563 1036 m 400 519 b 600 619 475 519 551 554 l 496 574 b 414 694 450 590 461 607 b 374 733 399 724 392 732 b 397 657 374 674 379 657 b 408 658 403 657 408 658 l 415 611 b 250 578 415 611 329 600 b 400 519 289 540 340 519 m 171 785 b 214 622 171 722 186 667 b 243 657 222 625 235 633 b 254 757 251 674 254 706 b 217 885 254 847 246 885 b 185 878 207 885 193 881 b 171 785 175 850 171 818 m 379 854 b 374 797 375 840 374 818 b 450 829 421 797 450 803 b 400 875 450 856 418 875 b 379 854 390 875 383 869 "},"−":{"ha":697,"x_min":0,"x_max":0,"o":"m 636 525 b 636 376 647 476 647 426 b 350 383 601 376 476 383 b 61 376 224 383 96 376 b 61 525 50 426 50 475 b 347 518 97 525 221 518 b 636 525 474 518 604 525 "},"ð":{"ha":671,"x_min":0,"x_max":0,"o":"m 101 807 l 208 903 b -24 1007 128 944 43 974 l 69 1206 b 368 1046 175 1156 278 1104 l 518 1181 l 615 1057 l 486 957 b 699 508 615 846 699 706 b 288 -57 699 242 546 138 b -26 354 115 1 -26 168 b 293 722 -26 513 75 554 b 414 704 321 722 389 708 b 321 829 392 754 358 796 l 172 714 m 394 304 b 367 443 394 372 385 419 b 285 483 350 464 311 483 b 265 457 269 483 265 476 b 376 239 265 374 333 239 b 394 304 388 239 394 247 "},"×":{"ha":639,"x_min":0,"x_max":0,"o":"m 319 256 l 174 94 b 53 215 126 126 85 167 l 211 364 l 53 514 b 174 635 85 563 126 601 l 319 474 l 465 635 b 588 514 514 601 554 563 l 429 364 l 588 215 b 465 94 554 167 514 126 "},"³":{"ha":551,"x_min":0,"x_max":0,"o":"m 25 996 l 211 1101 b 494 1011 429 1101 494 1011 b 342 846 494 936 436 879 b 515 722 446 833 515 793 b 228 504 515 632 399 561 b 19 543 114 504 17 543 l 56 708 l 139 700 b 217 654 139 669 174 654 b 293 686 256 654 293 667 b 104 764 293 714 203 776 l 90 847 b 257 910 204 868 257 890 b 186 939 257 925 225 939 b 53 913 132 939 53 913 "},"©":{"ha":1039,"x_min":0,"x_max":0,"o":"m 504 978 b 1036 503 892 978 1036 736 b 550 -53 1036 239 851 92 b 18 425 201 -54 18 146 b 504 978 18 706 201 839 m 536 844 b 179 472 364 844 179 726 b 511 79 179 253 315 79 b 876 467 682 79 876 214 b 536 844 876 675 744 844 m 731 317 l 608 172 b 533 164 608 172 572 164 b 260 465 386 164 260 288 b 543 756 260 642 382 679 b 714 728 629 756 714 728 b 699 536 714 628 699 536 l 615 538 b 515 606 594 589 565 606 b 463 540 478 606 463 596 b 607 338 463 407 547 338 b 682 368 646 338 682 368 "},"Á":{"ha":824,"x_min":0,"x_max":0,"o":"m 956 86 l 585 -79 b 483 58 535 -57 524 -18 b 458 271 490 108 481 182 l 246 271 b 243 229 243 254 243 240 b 374 158 243 146 283 140 l 396 47 l -11 -75 b -87 89 -54 -60 -82 33 b 146 524 -10 157 49 269 b 214 743 193 649 214 711 b 118 772 214 772 196 776 l 110 899 l 601 994 b 888 183 772 282 803 183 b 919 188 904 183 919 188 m 246 1072 l 518 1313 l 697 1164 b 321 949 596 1044 481 986 m 336 640 b 275 421 308 549 289 478 l 415 421 b 336 640 393 489 365 563 "},"Â":{"ha":824,"x_min":0,"x_max":0,"o":"m 604 979 b 886 183 772 281 803 183 b 919 188 904 183 919 188 l 956 86 l 585 -79 b 483 58 535 -57 524 -18 b 458 271 490 108 481 182 l 246 271 b 243 229 243 254 243 240 b 374 158 243 146 283 140 l 396 47 l -11 -75 b -87 89 -54 -60 -82 33 b 146 524 -10 157 49 269 b 214 743 193 649 214 711 b 118 772 214 772 196 776 l 110 899 l 572 989 b 403 1088 475 1064 442 1088 b 206 979 360 1088 297 1057 l 119 1086 b 403 1346 172 1132 306 1254 l 415 1346 b 692 1094 508 1263 629 1146 m 336 640 b 275 421 308 549 289 478 l 415 421 b 336 640 393 489 365 563 "},"Ä":{"ha":824,"x_min":0,"x_max":0,"o":"m 956 86 l 585 -79 b 483 58 535 -57 524 -18 b 458 271 490 108 481 182 l 246 271 b 243 229 243 254 243 240 b 374 158 243 146 283 140 l 396 47 l -11 -75 b -87 89 -54 -60 -82 33 b 146 524 -10 157 49 269 b 214 743 193 649 214 711 b 118 772 214 772 196 776 l 110 899 l 601 994 b 888 183 772 282 803 183 b 919 188 904 183 919 188 m 122 1121 l 276 1308 b 426 1192 351 1313 400 1244 l 528 1308 b 711 1086 663 1317 711 1086 l 471 979 l 389 1088 l 219 979 m 336 640 b 275 421 308 549 289 478 l 415 421 b 336 640 393 489 365 563 "},"À":{"ha":824,"x_min":0,"x_max":0,"o":"m 506 976 l 601 994 b 888 183 772 282 803 183 b 919 188 904 183 919 188 l 956 86 l 585 -79 b 483 58 535 -57 524 -18 b 458 271 490 108 481 182 l 246 271 b 243 229 243 254 243 240 b 374 158 243 146 283 140 l 396 47 l -11 -75 b -87 89 -54 -60 -82 33 b 146 524 -10 157 49 269 b 214 743 193 649 214 711 b 118 772 214 772 196 776 l 110 899 l 450 965 b 117 1169 313 1003 208 1060 l 297 1318 l 568 1076 m 336 640 b 275 421 308 549 289 478 l 415 421 b 336 640 393 489 365 563 "},"Å":{"ha":824,"x_min":0,"x_max":0,"o":"m 160 1124 b 415 1321 160 1263 263 1321 b 650 1139 556 1321 650 1271 b 583 990 650 1071 625 1022 l 601 994 b 888 183 772 282 803 183 b 919 188 904 183 919 188 l 956 86 l 585 -79 b 483 58 535 -57 524 -18 b 458 271 490 108 481 182 l 246 271 b 243 229 243 254 243 240 b 374 158 243 146 283 140 l 396 47 l -11 -75 b -87 89 -54 -60 -82 33 b 146 524 -10 157 49 269 b 214 743 193 649 214 711 b 118 772 214 772 196 776 l 110 899 l 343 944 b 160 1124 231 956 160 1008 m 336 640 b 275 421 308 549 289 478 l 415 421 b 336 640 393 489 365 563 m 469 1129 b 403 1193 469 1165 446 1193 b 342 1133 363 1193 342 1169 b 407 1068 342 1096 365 1068 b 469 1129 447 1068 469 1093 "},"Ã":{"ha":824,"x_min":0,"x_max":0,"o":"m 956 86 l 585 -79 b 483 58 535 -57 524 -18 b 458 271 490 108 481 182 l 246 271 b 243 229 243 254 243 240 b 374 158 243 146 283 140 l 396 47 l -11 -75 b -87 89 -54 -60 -82 33 b 146 524 -10 157 49 269 b 214 743 193 649 214 711 b 118 772 214 772 196 776 l 110 899 l 601 994 b 888 183 772 282 803 183 b 919 188 904 183 919 188 m 711 1171 l 507 978 b 315 1032 408 978 374 1032 b 199 978 282 1032 244 1015 l 115 1069 l 318 1264 b 511 1210 418 1264 453 1210 b 626 1264 544 1210 582 1226 m 336 640 b 275 421 308 549 289 478 l 415 421 b 336 640 393 489 365 563 "},"Ç":{"ha":688,"x_min":0,"x_max":0,"o":"m 732 211 l 478 -31 l 446 -33 b 438 -78 442 -49 438 -65 b 531 -278 438 -150 583 -136 l 319 -392 l 267 -303 b 336 -226 267 -303 336 -267 b 268 -128 336 -193 293 -171 l 328 -22 b -18 465 125 21 -18 203 b 479 976 -18 783 194 846 b 710 928 632 976 710 928 b 685 638 710 783 685 638 l 561 640 b 413 733 533 703 501 733 b 296 599 321 733 296 701 b 543 231 296 374 414 231 b 669 292 582 231 608 244 "},"É":{"ha":671,"x_min":0,"x_max":0,"o":"m 681 504 l 497 407 b 386 413 478 407 435 410 b 483 203 386 243 393 203 b 729 311 574 203 639 243 l 792 244 l 568 -12 b 333 0 543 -12 440 0 b 60 -43 186 0 143 -24 l 14 94 b 69 154 50 114 63 124 b 85 503 78 193 85 360 b -25 743 85 740 65 744 l -42 864 l 272 951 b 297 950 276 951 286 950 l 224 1072 l 496 1313 l 675 1164 b 303 950 575 1046 460 988 b 465 942 342 947 407 942 b 688 968 592 942 688 968 l 726 867 l 535 726 b 436 739 519 726 469 739 b 396 710 404 739 399 726 b 388 569 392 685 389 632 b 653 608 464 567 543 568 "},"Ê":{"ha":671,"x_min":0,"x_max":0,"o":"m 681 504 l 497 407 b 386 413 478 407 435 410 b 483 203 386 243 393 203 b 729 311 574 203 639 243 l 792 244 l 568 -12 b 333 0 543 -12 440 0 b 60 -43 186 0 143 -24 l 14 94 b 69 154 50 114 63 124 b 85 503 78 193 85 360 b -25 743 85 740 65 744 l -42 864 l 272 951 b 464 942 292 951 386 942 b 688 968 592 942 688 968 l 726 867 l 535 726 b 436 739 519 726 469 739 b 396 710 404 739 399 726 b 388 569 392 685 389 632 b 653 608 464 567 543 568 m 575 969 b 381 1088 460 1060 424 1088 b 183 979 336 1088 275 1057 l 97 1086 b 381 1346 150 1132 283 1254 l 393 1346 b 669 1094 486 1263 607 1146 "},"Ë":{"ha":671,"x_min":0,"x_max":0,"o":"m 681 504 l 497 407 b 386 413 478 407 435 410 b 483 203 386 243 393 203 b 729 311 574 203 639 243 l 792 244 l 568 -12 b 333 0 543 -12 440 0 b 60 -43 186 0 143 -24 l 14 94 b 69 154 50 114 63 124 b 85 503 78 193 85 360 b -25 743 85 740 65 744 l -42 864 l 272 951 b 464 942 292 951 386 942 b 688 968 592 942 688 968 l 726 867 l 535 726 b 436 739 519 726 469 739 b 396 710 404 739 399 726 b 388 569 392 685 389 632 b 653 608 464 567 543 568 m 100 1121 l 254 1308 b 404 1192 329 1313 378 1244 l 506 1308 b 689 1086 640 1317 689 1086 l 449 979 l 367 1088 l 197 979 "},"È":{"ha":671,"x_min":0,"x_max":0,"o":"m 681 504 l 497 407 b 386 413 478 407 435 410 b 483 203 386 243 393 203 b 729 311 574 203 639 243 l 792 244 l 568 -12 b 333 0 543 -12 440 0 b 60 -43 186 0 143 -24 l 14 94 b 69 154 50 114 63 124 b 85 503 78 193 85 360 b -25 743 85 740 65 744 l -42 864 l 272 951 b 464 942 292 951 386 942 b 688 968 592 942 688 968 l 726 867 l 535 726 b 436 739 519 726 469 739 b 396 710 404 739 399 726 b 388 569 392 685 389 632 b 653 608 464 567 543 568 m 471 954 b 94 1169 313 992 196 1049 l 275 1318 l 546 1076 "},"Í":{"ha":468,"x_min":0,"x_max":0,"o":"m 93 489 b 8 744 93 694 81 744 b -22 742 -8 744 -22 742 l -39 864 b 482 979 -39 864 224 906 l 515 857 b 435 779 467 838 443 819 b 419 443 425 729 419 571 b 510 175 419 224 436 175 b 549 178 528 175 549 178 l 567 60 b 42 -67 567 60 290 13 l 8 57 b 75 138 53 81 67 99 b 93 489 89 201 93 371 m 96 1072 l 368 1313 l 547 1164 b 171 949 446 1044 331 986 "},"Î":{"ha":468,"x_min":0,"x_max":0,"o":"m 447 969 l 482 979 l 515 857 b 435 779 467 838 443 819 b 419 443 425 729 419 571 b 510 175 419 224 436 175 b 549 178 528 175 549 178 l 567 60 b 42 -67 567 60 290 13 l 8 57 b 75 138 53 81 67 99 b 93 489 89 201 93 371 b 8 744 93 694 81 744 b -22 742 -8 744 -22 742 l -39 864 b 447 969 -39 864 200 901 b 253 1088 332 1060 296 1088 b 56 979 208 1088 147 1057 l -31 1086 b 253 1346 22 1132 156 1254 l 265 1346 b 542 1094 358 1263 479 1146 "},"Ï":{"ha":468,"x_min":0,"x_max":0,"o":"m 93 489 b 8 744 93 694 81 744 b -22 742 -8 744 -22 742 l -39 864 b 482 979 -39 864 224 906 l 515 857 b 435 779 467 838 443 819 b 419 443 425 729 419 571 b 510 175 419 224 436 175 b 549 178 528 175 549 178 l 567 60 b 42 -67 567 60 290 13 l 8 57 b 75 138 53 81 67 99 b 93 489 89 201 93 371 m -28 1121 l 126 1308 b 276 1192 201 1313 250 1244 l 378 1308 b 561 1086 513 1317 561 1086 l 321 979 l 239 1088 l 69 979 "},"Ì":{"ha":468,"x_min":0,"x_max":0,"o":"m 93 489 b 8 744 93 694 81 744 b -22 742 -8 744 -22 742 l -39 864 b 482 979 -39 864 224 906 l 515 857 b 435 779 467 838 443 819 b 419 443 425 729 419 571 b 510 175 419 224 436 175 b 549 178 528 175 549 178 l 567 60 b 42 -67 567 60 290 13 l 8 57 b 75 138 53 81 67 99 b 93 489 89 201 93 371 m 343 954 b -33 1169 185 992 68 1049 l 147 1318 l 418 1076 "},"Ñ":{"ha":838,"x_min":0,"x_max":0,"o":"m 622 -40 b 256 497 579 89 456 224 b 347 186 254 231 275 186 b 397 190 369 186 397 190 l 425 69 l 10 -42 l -17 71 b 61 156 -17 71 40 101 b 94 474 78 199 94 322 b 36 739 94 618 79 682 b -72 799 1 785 -32 796 l -82 917 l 315 971 b 664 478 415 924 453 765 b 560 800 665 722 644 800 b 522 797 544 800 522 797 l 506 914 l 878 971 l 896 858 b 840 763 896 858 851 825 b 828 7 826 688 826 401 m 754 1171 l 550 978 b 358 1032 451 978 417 1032 b 242 978 325 1032 288 1015 l 158 1069 l 361 1264 b 554 1210 461 1264 496 1210 b 669 1264 588 1210 625 1226 "},"Ó":{"ha":792,"x_min":0,"x_max":0,"o":"m 239 -43 b 228 101 272 14 279 56 b -28 503 171 153 -28 274 b 353 957 -28 729 164 842 l 283 1072 l 556 1313 l 735 1164 b 485 986 663 1078 582 1024 b 828 567 663 949 828 776 b 371 -131 828 285 529 26 m 307 713 b 243 635 267 713 243 672 b 510 294 243 526 449 294 b 558 386 532 294 558 326 b 307 713 558 538 389 713 "},"Ô":{"ha":792,"x_min":0,"x_max":0,"o":"m 239 -43 b 228 101 272 14 279 56 b -28 503 171 153 -28 274 b 414 994 -28 754 208 864 b 828 567 615 994 828 804 b 371 -131 828 285 529 26 m 307 713 b 243 635 267 713 243 672 b 510 294 243 526 449 294 b 558 386 532 294 558 326 b 307 713 558 538 389 713 m 635 969 b 440 1088 519 1060 483 1088 b 243 979 396 1088 335 1057 l 157 1086 b 440 1346 210 1132 343 1254 l 453 1346 b 729 1094 546 1263 667 1146 "},"Ö":{"ha":792,"x_min":0,"x_max":0,"o":"m 160 1121 l 314 1308 b 464 1192 389 1313 438 1244 l 565 1308 b 749 1086 700 1317 749 1086 l 510 981 b 828 567 678 932 828 765 b 371 -131 828 285 529 26 l 239 -43 b 228 101 272 14 279 56 b -28 503 171 153 -28 274 b 414 994 -28 754 208 864 b 507 981 444 994 476 989 l 426 1088 l 257 979 m 307 713 b 243 635 267 713 243 672 b 510 294 243 526 449 294 b 558 386 532 294 558 326 b 307 713 558 538 389 713 "},"Ò":{"ha":792,"x_min":0,"x_max":0,"o":"m 540 971 b 828 567 694 913 828 754 b 371 -131 828 285 529 26 l 239 -43 b 228 101 272 14 279 56 b -28 503 171 153 -28 274 b 408 990 -28 751 204 861 b 154 1169 308 1028 228 1082 l 335 1318 l 606 1076 m 307 713 b 243 635 267 713 243 672 b 510 294 243 526 449 294 b 558 386 532 294 558 326 b 307 713 558 538 389 713 "},"Õ":{"ha":792,"x_min":0,"x_max":0,"o":"m 749 1171 l 544 978 b 513 979 533 978 522 978 b 828 567 679 929 828 765 b 371 -131 828 285 529 26 l 239 -43 b 228 101 272 14 279 56 b -28 503 171 153 -28 274 b 414 994 -28 754 208 864 b 469 989 432 994 451 993 b 351 1032 424 1006 393 1032 b 236 978 319 1032 282 1015 l 153 1069 l 356 1264 b 549 1210 456 1264 490 1210 b 664 1264 582 1210 619 1226 m 307 713 b 243 635 267 713 243 672 b 510 294 243 526 449 294 b 558 386 532 294 558 326 b 307 713 558 538 389 713 "},"Š":{"ha":629,"x_min":0,"x_max":0,"o":"m 163 1275 b 357 1158 276 1186 314 1158 b 554 1267 401 1158 463 1189 l 640 1158 b 456 993 604 1126 531 1061 b 628 950 567 982 628 950 l 603 642 l 485 642 b 451 697 485 642 476 678 b 282 743 419 724 326 743 b 225 706 242 743 225 726 b 672 296 225 597 672 590 b 276 -64 672 88 451 22 b -18 -7 75 -64 -18 -7 l 17 304 l 133 299 b 151 253 133 299 135 278 b 336 182 185 204 251 182 b 425 222 400 182 425 194 b -19 626 425 338 -19 347 b 293 946 -19 785 124 854 b 68 1151 210 1022 119 1107 "},"Ú":{"ha":918,"x_min":0,"x_max":0,"o":"m 1024 65 b 608 -79 1024 65 803 11 b 542 35 563 -32 542 35 b 546 163 549 75 547 108 b 268 -68 458 35 378 -68 b 63 68 190 -68 151 -17 b 76 493 63 125 76 308 b 1 732 76 686 61 732 b -32 729 -12 732 -32 729 l -49 861 b 394 963 139 896 314 942 l 329 1072 l 601 1313 l 781 1164 b 447 960 689 1056 585 997 l 469 890 b 908 996 694 931 908 996 l 933 883 b 883 813 933 883 899 856 b 858 463 864 754 858 603 b 946 179 858 263 869 179 b 1000 185 965 179 1000 185 m 440 806 b 422 767 433 796 425 778 b 403 361 408 715 403 496 b 426 260 403 293 404 260 b 511 315 449 260 494 290 b 535 571 529 347 535 447 b 481 760 535 699 532 760 b 447 756 468 760 447 756 "},"Û":{"ha":918,"x_min":0,"x_max":0,"o":"m 1024 65 b 608 -79 1024 65 803 11 b 542 35 563 -32 542 35 b 546 163 549 75 547 108 b 268 -68 458 35 378 -68 b 63 68 190 -68 151 -17 b 76 493 63 125 76 308 b 1 732 76 686 61 732 b -32 729 -12 732 -32 729 l -49 861 b 443 976 208 910 443 976 l 469 890 b 908 996 696 931 908 996 l 933 883 b 883 813 933 883 899 856 b 858 463 864 754 858 603 b 946 179 858 263 869 179 b 1000 185 965 179 1000 185 m 681 969 b 486 1088 565 1060 529 1088 b 289 979 442 1088 381 1057 l 203 1086 b 486 1346 256 1132 389 1254 l 499 1346 b 775 1094 592 1263 713 1146 m 440 806 b 422 767 433 796 425 778 b 403 361 408 715 403 496 b 426 260 403 293 404 260 b 511 315 449 260 494 290 b 535 571 529 347 535 447 b 481 760 535 699 532 760 b 447 756 468 760 447 756 "},"Ü":{"ha":918,"x_min":0,"x_max":0,"o":"m 1024 65 b 608 -79 1024 65 803 11 b 542 35 563 -32 542 35 b 546 163 549 75 547 108 b 268 -68 458 35 378 -68 b 63 68 190 -68 151 -17 b 76 493 63 125 76 308 b 1 732 76 686 61 732 b -32 729 -12 732 -32 729 l -49 861 b 443 976 208 910 443 976 l 469 890 b 908 996 696 931 908 996 l 933 883 b 883 813 933 883 899 856 b 858 463 864 754 858 603 b 946 179 858 263 869 179 b 1000 185 965 179 1000 185 m 206 1121 l 360 1308 b 510 1192 435 1313 483 1244 l 611 1308 b 794 1086 746 1317 794 1086 l 554 979 l 472 1088 l 303 979 m 440 806 b 422 767 433 796 425 778 b 403 361 408 715 403 496 b 426 260 403 293 404 260 b 511 315 449 260 494 290 b 535 571 529 347 535 447 b 481 760 535 699 532 760 b 447 756 468 760 447 756 "},"Ù":{"ha":918,"x_min":0,"x_max":0,"o":"m 1024 65 b 608 -79 1024 65 803 11 b 542 35 563 -32 542 35 b 546 163 549 75 547 108 b 268 -68 458 35 378 -68 b 63 68 190 -68 151 -17 b 76 493 63 125 76 308 b 1 732 76 686 61 732 b -32 729 -12 732 -32 729 l -49 861 b 443 976 208 910 443 976 l 469 890 b 908 996 696 931 908 996 l 933 883 b 883 813 933 883 899 856 b 858 463 864 754 858 603 b 946 179 858 263 869 179 b 1000 185 965 179 1000 185 m 576 954 b 200 1169 418 992 301 1049 l 381 1318 l 651 1076 m 440 806 b 422 767 433 796 425 778 b 403 361 408 715 403 496 b 426 260 403 293 404 260 b 511 315 449 260 494 290 b 535 571 529 347 535 447 b 481 760 535 699 532 760 b 447 756 468 760 447 756 "},"Ý":{"ha":740,"x_min":0,"x_max":0,"o":"m -158 850 l 249 1008 b 479 517 335 968 342 794 b 547 714 510 572 547 665 b 478 778 547 753 525 778 b 425 771 454 778 425 771 l 401 893 l 888 1001 l 918 879 b 619 504 842 839 758 724 b 532 290 546 388 532 363 b 610 163 532 185 561 163 b 678 168 633 163 678 168 l 697 53 b 165 -60 697 53 425 17 l 122 64 b 190 122 122 64 171 86 b 210 239 200 140 210 178 b 94 571 210 324 192 385 b -47 744 28 699 1 744 b -125 732 -74 744 -125 732 m 261 1072 l 533 1313 l 713 1164 b 336 949 611 1044 496 986 "},"Ÿ":{"ha":740,"x_min":0,"x_max":0,"o":"m 404 1088 l 265 999 b 479 517 336 944 350 775 b 547 714 510 572 547 665 b 478 778 547 753 525 778 b 425 771 454 778 425 771 l 401 893 l 888 1001 l 918 879 b 619 504 842 839 758 724 b 532 290 546 388 532 363 b 610 163 532 185 561 163 b 678 168 633 163 678 168 l 697 53 b 165 -60 697 53 425 17 l 122 64 b 190 122 122 64 171 86 b 210 239 200 140 210 178 b 94 571 210 324 192 385 b -47 744 28 699 1 744 b -125 732 -74 744 -125 732 l -158 850 l 221 997 l 138 1121 l 292 1308 b 442 1192 367 1313 415 1244 l 543 1308 b 726 1086 678 1317 726 1086 l 486 979 "},"Ž":{"ha":742,"x_min":0,"x_max":0,"o":"m 239 1275 b 433 1158 353 1186 390 1158 b 631 1267 478 1158 539 1189 l 717 1158 b 478 942 671 1119 568 1025 b 743 956 615 942 743 956 l 811 851 b 410 219 592 499 410 275 b 490 190 410 199 435 190 b 807 346 624 190 689 238 l 886 272 l 668 -12 b 367 0 619 -12 478 0 b 50 -33 186 0 50 -33 l -17 81 b 371 719 206 424 371 669 b 271 753 371 738 349 753 b -7 657 163 753 99 724 l -69 754 l 158 953 b 372 943 199 953 278 946 b 144 1151 289 1019 196 1107 "},"á":{"ha":707,"x_min":0,"x_max":0,"o":"m 826 176 l 494 -67 b 375 75 424 -49 385 6 l 169 -58 b -10 183 53 -24 -10 72 b 188 386 -10 288 46 343 b 361 457 289 417 361 421 b 331 493 361 467 356 481 b 203 518 296 510 242 518 b 39 474 149 518 114 503 l -10 586 l 268 750 l 208 803 l 401 1111 l 610 1006 b 382 744 557 879 483 807 b 647 607 488 722 556 665 b 631 329 649 513 631 411 b 681 225 631 254 646 225 b 785 257 715 225 785 257 m 360 328 b 290 251 317 314 290 300 b 326 185 290 213 306 185 b 356 206 336 185 349 192 b 360 328 364 221 364 243 "},"â":{"ha":707,"x_min":0,"x_max":0,"o":"m 826 176 l 494 -67 b 375 75 424 -49 385 6 l 169 -58 b -10 183 53 -24 -10 72 b 188 386 -10 288 46 343 b 361 457 289 417 361 421 b 331 493 361 467 356 481 b 203 518 296 510 242 518 b 39 474 149 518 114 503 l -10 586 l 278 756 b 647 607 450 756 529 682 b 631 329 649 513 631 411 b 681 225 631 254 646 225 b 785 257 715 225 785 257 m 360 328 b 290 251 317 314 290 300 b 326 185 290 213 306 185 b 356 206 336 185 349 192 b 360 328 364 221 364 243 m 501 758 b 342 894 421 842 381 894 b 192 764 313 894 275 863 l 88 842 l 328 1158 l 379 1158 l 611 849 "},"ä":{"ha":707,"x_min":0,"x_max":0,"o":"m 826 176 l 494 -67 b 375 75 424 -49 385 6 l 169 -58 b -10 183 53 -24 -10 72 b 188 386 -10 288 46 343 b 361 457 289 417 361 421 b 331 493 361 467 356 481 b 203 518 296 510 242 518 b 39 474 149 518 114 503 l -10 586 l 278 756 b 647 607 450 756 529 682 b 631 329 649 513 631 411 b 681 225 631 254 646 225 b 785 257 715 225 785 257 m 67 913 l 221 1100 b 371 983 296 1104 344 1036 l 472 1100 b 656 878 607 1108 656 878 l 415 771 l 333 879 l 164 771 m 360 328 b 290 251 317 314 290 300 b 326 185 290 213 306 185 b 356 206 336 185 349 192 b 360 328 364 221 364 243 "},"à":{"ha":707,"x_min":0,"x_max":0,"o":"m 411 738 b 647 607 500 711 564 660 b 631 329 649 513 631 411 b 681 225 631 254 646 225 b 785 257 715 225 785 257 l 826 176 l 494 -67 b 375 75 424 -49 385 6 l 169 -58 b -10 183 53 -24 -10 72 b 188 386 -10 288 46 343 b 361 457 289 417 361 421 b 331 493 361 467 356 481 b 203 518 296 510 242 518 b 39 474 149 518 114 503 l -10 586 l 278 756 b 307 754 288 756 297 756 b 89 1008 208 815 139 888 l 297 1115 l 489 806 m 360 328 b 290 251 317 314 290 300 b 326 185 290 213 306 185 b 356 206 336 185 349 192 b 360 328 364 221 364 243 "},"å":{"ha":707,"x_min":0,"x_max":0,"o":"m 147 925 b 388 1132 147 1057 240 1132 b 613 940 526 1132 613 1065 b 413 736 613 822 536 750 b 647 607 501 710 565 658 b 631 329 649 513 631 411 b 681 225 631 254 646 225 b 785 257 715 225 785 257 l 826 176 l 494 -67 b 375 75 424 -49 385 6 l 169 -58 b -10 183 53 -24 -10 72 b 188 386 -10 288 46 343 b 361 457 289 417 361 421 b 331 493 361 467 356 481 b 203 518 296 510 242 518 b 39 474 149 518 114 503 l -10 586 l 268 750 b 147 925 192 775 147 833 m 432 932 b 378 1006 432 982 403 1006 b 326 935 350 1006 326 979 b 381 860 326 885 356 860 b 432 932 408 860 432 888 m 360 328 b 290 251 317 314 290 300 b 326 185 290 213 306 185 b 356 206 336 185 349 192 b 360 328 364 221 364 243 "},"ã":{"ha":707,"x_min":0,"x_max":0,"o":"m 826 176 l 494 -67 b 375 75 424 -49 385 6 l 169 -58 b -10 183 53 -24 -10 72 b 188 386 -10 288 46 343 b 361 457 289 417 361 421 b 331 493 361 467 356 481 b 203 518 296 510 242 518 b 39 474 149 518 114 503 l -10 586 l 278 756 b 647 607 450 756 529 682 b 631 329 649 513 631 411 b 681 225 631 254 646 225 b 785 257 715 225 785 257 m 360 328 b 290 251 317 314 290 300 b 326 185 290 213 306 185 b 356 206 336 185 349 192 b 360 328 364 221 364 243 m 656 963 l 451 769 b 260 824 353 769 318 824 b 143 769 226 824 189 807 l 60 861 l 263 1056 b 456 1001 363 1056 397 1001 b 571 1056 489 1001 526 1018 "},"ç":{"ha":539,"x_min":0,"x_max":0,"o":"m 613 193 l 335 -39 b 328 -78 331 -53 328 -68 b 421 -278 328 -150 474 -136 l 210 -392 l 157 -303 b 226 -226 157 -303 226 -267 b 160 -128 226 -193 183 -171 l 214 -32 b -8 342 97 25 -8 163 b 319 742 -8 546 129 588 b 572 686 485 742 572 686 b 490 444 565 543 490 444 b 299 494 463 444 363 494 b 267 461 275 494 267 488 b 446 226 267 379 349 226 b 568 269 482 226 525 247 "},"é":{"ha":626,"x_min":0,"x_max":0,"o":"m 665 179 l 301 -60 b -8 350 108 -40 -8 171 b 318 715 -8 542 128 603 l 219 803 l 413 1111 l 621 1006 b 396 747 569 881 497 808 b 644 444 536 731 650 574 l 324 293 b 438 208 354 244 394 208 b 625 268 493 208 625 268 m 261 476 b 278 388 261 453 267 421 b 354 450 326 410 354 428 b 286 519 354 476 313 519 b 261 476 271 519 261 507 "},"ê":{"ha":626,"x_min":0,"x_max":0,"o":"m 665 179 l 301 -60 b -8 350 108 -40 -8 171 b 372 749 -8 560 154 614 b 644 444 522 749 651 582 l 324 293 b 438 208 354 244 394 208 b 625 268 493 208 625 268 m 513 758 b 353 894 432 842 392 894 b 203 764 324 894 286 863 l 99 842 l 339 1158 l 390 1158 l 622 849 m 261 476 b 278 388 261 453 267 421 b 354 450 326 410 354 428 b 286 519 354 476 313 519 b 261 476 271 519 261 507 "},"ë":{"ha":626,"x_min":0,"x_max":0,"o":"m 665 179 l 301 -60 b -8 350 108 -40 -8 171 b 372 749 -8 560 154 614 b 644 444 522 749 651 582 l 324 293 b 438 208 354 244 394 208 b 625 268 493 208 625 268 m 78 913 l 232 1100 b 382 983 307 1104 356 1036 l 483 1100 b 667 878 618 1108 667 878 l 426 771 l 344 879 l 175 771 m 261 476 b 278 388 261 453 267 421 b 354 450 326 410 354 428 b 286 519 354 476 313 519 b 261 476 271 519 261 507 "},"è":{"ha":626,"x_min":0,"x_max":0,"o":"m 426 740 b 644 444 551 707 650 565 l 324 293 b 438 208 354 244 394 208 b 625 268 493 208 625 268 l 665 179 l 301 -60 b -8 350 108 -40 -8 171 b 350 735 -8 553 143 610 b 100 1008 235 800 156 874 l 308 1115 l 500 806 m 261 476 b 278 388 261 453 267 421 b 354 450 326 410 354 428 b 286 519 354 476 313 519 b 261 476 271 519 261 507 "},"í":{"ha":457,"x_min":0,"x_max":0,"o":"m 583 194 l 201 -69 b 39 54 99 -54 39 54 b 74 349 39 63 74 168 b -8 508 74 485 54 514 l -28 613 l 218 724 l 128 803 l 321 1111 l 529 1006 b 304 747 478 881 406 808 b 418 656 353 731 372 693 b 367 319 413 569 367 444 b 538 272 367 226 392 204 "},"î":{"ha":457,"x_min":0,"x_max":0,"o":"m 583 194 l 201 -69 b 39 54 99 -54 39 54 b 74 349 39 63 74 168 b -8 508 74 485 54 514 l -28 613 l 285 753 b 418 656 349 740 367 699 b 367 319 413 569 367 444 b 538 272 367 226 392 204 m 421 758 b 261 894 340 842 300 894 b 111 764 232 894 194 863 l 7 842 l 247 1158 l 299 1158 l 531 849 "},"ï":{"ha":457,"x_min":0,"x_max":0,"o":"m 583 194 l 201 -69 b 39 54 99 -54 39 54 b 74 349 39 63 74 168 b -8 508 74 485 54 514 l -28 613 l 285 753 b 418 656 349 740 367 699 b 367 319 413 569 367 444 b 538 272 367 226 392 204 m -14 913 l 140 1100 b 290 983 215 1104 264 1036 l 392 1100 b 575 878 526 1108 575 878 l 335 771 l 253 879 l 83 771 "},"ì":{"ha":457,"x_min":0,"x_max":0,"o":"m 329 736 b 418 656 361 717 381 686 b 367 319 413 569 367 444 b 538 272 367 226 392 204 l 583 194 l 201 -69 b 39 54 99 -54 39 54 b 74 349 39 63 74 168 b -8 508 74 485 54 514 l -28 613 l 253 739 b 8 1008 140 803 63 876 l 217 1115 l 408 806 "},"ñ":{"ha":836,"x_min":0,"x_max":0,"o":"m -29 613 l 289 753 b 389 676 315 753 353 715 b 372 499 389 654 372 557 b 600 744 444 614 485 744 b 786 686 665 744 718 703 b 756 322 786 556 756 425 b 797 232 756 260 767 232 b 915 272 835 232 915 272 l 961 196 l 607 -71 b 464 64 533 -60 513 -1 b 472 274 464 103 472 207 b 439 410 472 361 458 410 b 371 235 415 410 371 336 b 396 63 371 158 396 68 l 99 -83 b 10 35 99 -83 39 -53 b 78 300 68 86 78 119 b 24 513 78 479 68 513 b -8 508 8 513 -8 508 m 740 963 l 536 769 b 344 824 438 769 403 824 b 228 769 311 824 274 807 l 144 861 l 347 1056 b 540 1001 447 1056 482 1001 b 656 1056 574 1001 611 1018 "},"ó":{"ha":668,"x_min":0,"x_max":0,"o":"m -26 400 b 300 736 -26 558 97 633 l 225 803 l 418 1111 l 626 1006 b 406 749 575 882 504 810 b 706 440 579 715 706 585 b 336 -112 706 257 504 71 b 214 -26 253 -83 214 -26 b 203 64 244 15 246 31 b -26 400 99 146 -26 240 m 261 519 b 235 493 247 519 235 508 b 422 260 235 439 388 260 b 449 294 432 260 449 274 b 261 519 449 354 314 519 "},"ô":{"ha":668,"x_min":0,"x_max":0,"o":"m 342 757 b 706 440 549 747 706 603 b 336 -112 706 257 504 71 b 214 -26 253 -83 214 -26 b 203 64 244 15 246 31 b -26 400 99 146 -26 240 b 342 757 -26 569 114 643 m 261 519 b 235 493 247 519 235 508 b 422 260 235 439 388 260 b 449 294 432 260 449 274 b 261 519 449 354 314 519 m 518 758 b 358 894 438 842 397 894 b 208 764 329 894 292 863 l 104 842 l 344 1158 l 396 1158 l 628 849 "},"ö":{"ha":668,"x_min":0,"x_max":0,"o":"m 342 757 b 706 440 549 747 706 603 b 336 -112 706 257 504 71 b 214 -26 253 -83 214 -26 b 203 64 244 15 246 31 b -26 400 99 146 -26 240 b 342 757 -26 569 114 643 m 83 913 l 238 1100 b 388 983 313 1104 361 1036 l 489 1100 b 672 878 624 1108 672 878 l 432 771 l 350 879 l 181 771 m 261 519 b 235 493 247 519 235 508 b 422 260 235 439 388 260 b 449 294 432 260 449 274 b 261 519 449 354 314 519 "},"ò":{"ha":668,"x_min":0,"x_max":0,"o":"m 433 743 b 706 440 593 701 706 578 b 336 -112 706 257 504 71 b 214 -26 253 -83 214 -26 b 203 64 244 15 246 31 b -26 400 99 146 -26 240 b 329 750 -26 567 108 640 b 106 1008 228 813 157 885 l 314 1115 l 506 806 m 261 519 b 235 493 247 519 235 508 b 422 260 235 439 388 260 b 449 294 432 260 449 274 b 261 519 449 354 314 519 "},"õ":{"ha":668,"x_min":0,"x_max":0,"o":"m 342 757 b 706 440 549 747 706 603 b 336 -112 706 257 504 71 b 214 -26 253 -83 214 -26 b 203 64 244 15 246 31 b -26 400 99 146 -26 240 b 342 757 -26 569 114 643 m 261 519 b 235 493 247 519 235 508 b 422 260 235 439 388 260 b 449 294 432 260 449 274 b 261 519 449 354 314 519 m 672 963 l 468 769 b 276 824 369 769 335 824 b 160 769 243 824 206 807 l 76 861 l 279 1056 b 472 1001 379 1056 414 1001 b 588 1056 506 1001 543 1018 "},"š":{"ha":507,"x_min":0,"x_max":0,"o":"m 144 1085 b 304 949 224 1001 265 949 b 454 1079 333 949 371 981 l 557 1001 l 360 743 b 514 713 465 732 514 713 b 492 458 514 713 514 564 l 390 465 b 219 547 388 522 296 547 b 181 532 189 547 181 543 b 540 249 181 460 540 469 b 267 -49 540 119 417 42 b -39 4 64 -49 -39 4 b 36 239 -39 4 -51 167 b 265 151 86 217 147 151 b 306 168 294 151 306 156 b -37 453 306 238 -37 249 b 226 736 -37 586 108 653 l 33 994 "},"ú":{"ha":835,"x_min":0,"x_max":0,"o":"m 961 196 l 614 -62 b 467 38 556 -62 522 -15 l 461 183 b 235 -47 376 33 311 -47 b 60 57 179 -47 115 -4 b 74 351 60 100 74 246 b -8 508 74 486 51 514 l -29 613 l 281 753 b 388 672 317 744 357 706 b 357 332 382 599 357 392 b 385 265 357 288 371 265 b 443 465 413 265 443 358 b 432 639 443 531 432 617 l 740 754 b 796 651 740 754 786 711 b 750 383 779 625 750 575 b 799 232 750 274 760 232 b 915 272 836 232 915 272 m 283 803 l 476 1111 l 685 1006 b 392 708 622 854 529 781 "},"û":{"ha":835,"x_min":0,"x_max":0,"o":"m 961 196 l 614 -62 b 467 38 556 -62 522 -15 l 461 183 b 235 -47 376 33 311 -47 b 60 57 179 -47 115 -4 b 74 351 60 100 74 246 b -8 508 74 486 51 514 l -29 613 l 281 753 b 388 672 317 744 357 706 b 357 332 382 599 357 392 b 385 265 357 288 371 265 b 443 465 413 265 443 358 b 432 639 443 531 432 617 l 740 754 b 796 651 740 754 786 711 b 750 383 779 625 750 575 b 799 232 750 274 760 232 b 915 272 836 232 915 272 m 576 758 b 417 894 496 842 456 894 b 267 764 388 894 350 863 l 163 842 l 403 1158 l 454 1158 l 686 849 "},"ü":{"ha":835,"x_min":0,"x_max":0,"o":"m 961 196 l 614 -62 b 467 38 556 -62 522 -15 l 461 183 b 235 -47 376 33 311 -47 b 60 57 179 -47 115 -4 b 74 351 60 100 74 246 b -8 508 74 486 51 514 l -29 613 l 281 753 b 388 672 317 744 357 706 b 357 332 382 599 357 392 b 385 265 357 288 371 265 b 443 465 413 265 443 358 b 432 639 443 531 432 617 l 740 754 b 796 651 740 754 786 711 b 750 383 779 625 750 575 b 799 232 750 274 760 232 b 915 272 836 232 915 272 m 142 913 l 296 1100 b 446 983 371 1104 419 1036 l 547 1100 b 731 878 682 1108 731 878 l 490 771 l 408 879 l 239 771 "},"ù":{"ha":835,"x_min":0,"x_max":0,"o":"m 961 196 l 614 -62 b 467 38 556 -62 522 -15 l 461 183 b 235 -47 376 33 311 -47 b 60 57 179 -47 115 -4 b 74 351 60 100 74 246 b -8 508 74 486 51 514 l -29 613 l 281 753 b 388 672 317 744 357 706 b 357 332 382 599 357 392 b 385 265 357 288 371 265 b 443 465 413 265 443 358 b 432 639 443 531 432 617 l 740 754 b 796 651 740 754 786 711 b 750 383 779 625 750 575 b 799 232 750 274 760 232 b 915 272 836 232 915 272 m 457 713 b 164 1008 318 785 226 858 l 372 1115 l 564 806 "},"ý":{"ha":676,"x_min":0,"x_max":0,"o":"m 303 619 l 553 758 b 697 476 626 710 697 581 b 524 93 697 407 665 301 b 76 -390 326 -197 193 -279 b -136 -371 -86 -412 -136 -371 l -135 -40 l -10 -33 b 121 -124 4 -100 22 -124 b 218 -68 189 -124 218 -112 b 113 233 218 -4 160 122 b -65 497 1 492 -8 507 l -103 606 l 146 751 b 271 682 186 751 221 710 b 428 238 285 604 326 440 b 453 351 440 268 453 308 b 426 468 453 394 440 438 b 347 522 403 521 381 531 m 213 803 l 406 1111 l 614 1006 b 321 708 551 854 458 781 "},"ÿ":{"ha":676,"x_min":0,"x_max":0,"o":"m 303 619 l 553 758 b 697 475 626 710 697 582 b 524 93 697 399 661 299 b 76 -390 314 -211 206 -267 b -136 -371 -86 -412 -136 -371 l -135 -40 l -10 -33 b 121 -124 4 -100 22 -124 b 218 -68 189 -124 218 -112 b 113 233 218 -4 160 122 b -65 497 1 492 -8 507 l -103 606 l 146 751 b 271 682 186 751 221 710 b 428 238 285 604 326 440 b 453 354 440 268 453 308 b 426 468 453 399 440 435 b 347 522 401 519 386 531 m 71 913 l 225 1100 b 375 983 300 1104 349 1036 l 476 1100 b 660 878 611 1108 660 878 l 419 771 l 338 879 l 168 771 "},"ž":{"ha":567,"x_min":0,"x_max":0,"o":"m 174 1085 b 333 949 253 1001 294 949 b 483 1079 363 949 400 981 l 586 1001 l 361 706 l 372 706 b 538 731 467 706 538 731 b 626 611 538 731 589 688 b 326 211 479 375 326 254 b 357 200 326 203 333 200 b 588 315 463 200 522 257 l 679 231 l 492 -8 b 217 0 363 -8 286 0 b 17 -26 92 0 17 -26 b -64 82 17 -26 -35 17 b 197 489 65 307 197 439 b 143 508 197 503 188 508 b -10 468 75 508 38 496 l -75 574 l 110 721 b 276 708 185 721 222 714 l 63 994 "},"ﬀ":{"ha":871,"x_min":0,"x_max":0,"o":"m 496 229 b 486 463 496 335 489 400 l 372 464 b 413 58 385 268 413 115 l 49 -87 b -8 19 7 -44 -8 19 b 79 264 75 104 79 96 b -24 479 79 457 74 465 b -19 603 -33 546 -19 603 l 71 603 b 422 1032 90 781 238 840 b 725 972 536 1033 675 989 b 838 1074 761 1003 799 1036 b 1056 1032 967 1075 1056 1032 b 1038 756 1054 888 1038 756 l 942 753 b 844 825 931 801 903 825 b 788 792 810 825 796 817 b 781 685 782 774 781 761 l 781 610 b 947 646 853 617 894 626 l 975 544 l 789 467 b 828 58 801 271 828 114 l 485 -81 b 428 26 442 -35 428 26 b 496 229 485 85 496 96 m 365 603 l 483 603 b 533 765 488 667 506 718 b 426 782 499 775 458 782 b 372 749 397 782 382 776 b 365 651 367 732 365 717 "},"ﬃ":{"ha":1294,"x_min":0,"x_max":0,"o":"m 496 238 b 486 461 496 346 489 394 l 372 463 b 413 58 385 268 413 115 l 49 -87 b -8 19 7 -44 -8 19 b 79 264 75 104 79 96 b -24 478 79 457 74 465 b -19 601 -33 546 -19 601 l 71 601 b 424 1032 90 781 239 840 b 740 974 536 1033 683 992 b 908 1113 794 1015 853 1060 b 1175 1071 1079 1115 1175 1071 b 1156 793 1172 926 1156 793 l 1039 793 b 922 849 1013 836 961 849 b 808 797 878 849 836 833 b 782 650 788 769 782 742 l 782 617 b 886 644 824 622 854 632 l 1122 753 b 1257 654 1188 740 1206 699 b 1206 319 1251 569 1206 444 b 1375 274 1206 226 1231 204 l 1421 194 l 1040 -69 b 878 54 938 -54 878 54 b 913 347 878 63 913 163 b 813 499 913 485 893 525 l 788 490 b 829 58 800 292 829 110 l 485 -81 b 428 26 442 -35 428 26 b 496 238 483 85 496 93 m 483 601 b 529 767 485 665 501 719 b 426 782 496 775 458 782 b 374 749 399 782 383 776 b 365 650 368 732 365 711 l 365 601 "},"ſ":{"ha":376,"x_min":0,"x_max":0,"o":"m 35 185 b 14 542 35 289 14 424 b 369 1074 14 818 128 828 b 601 1036 519 1075 601 1036 b 578 760 592 888 578 760 l 475 754 b 379 817 461 800 433 817 b 329 790 349 817 335 811 b 322 663 324 771 322 740 b 364 58 322 238 364 121 l 13 -79 b -43 28 13 -78 -22 -31 b 35 185 24 81 35 108 "},"€":{"ha":779,"x_min":0,"x_max":0,"o":"m 615 307 l 506 265 b 401 268 468 265 433 267 b 536 176 435 211 481 176 b 703 213 593 176 703 213 l 746 126 l 475 -49 b 117 271 283 -49 160 94 b 19 258 86 268 54 264 l 11 338 l 103 358 b 101 407 101 375 101 390 l 101 431 b 7 424 71 429 39 426 l -1 501 l 117 528 b 518 851 163 689 313 750 b 743 804 661 851 743 804 b 678 585 738 694 678 585 b 457 632 643 585 533 632 b 353 522 394 632 360 600 b 647 542 432 521 514 525 l 658 464 l 514 417 b 354 425 467 417 413 421 b 367 357 357 401 361 378 b 606 386 431 358 500 367 "},"≈":{"ha":846,"x_min":0,"x_max":0,"o":"m 794 289 l 554 114 b 254 211 436 114 339 211 b 124 163 217 211 168 193 l 53 257 l 278 421 b 575 325 394 421 496 325 b 724 383 617 325 676 353 m 794 646 l 554 472 b 254 569 436 472 339 569 b 124 521 217 569 168 550 l 53 615 l 278 779 b 575 683 394 779 496 683 b 724 740 617 683 676 711 "},"ď":{"ha":733,"x_min":0,"x_max":0,"o":"m 863 179 l 526 -71 b 403 108 472 -61 419 33 l 211 -62 b -22 321 57 -4 -22 171 b 276 708 -22 504 93 600 b 374 699 306 708 364 700 b 361 815 374 729 369 778 b 306 876 353 854 338 876 b 238 867 288 876 253 869 l 215 969 l 608 1110 b 699 1025 653 1097 671 1057 b 667 397 699 944 667 560 b 726 226 667 281 683 226 b 817 257 760 226 817 257 m 349 210 b 365 218 353 210 360 213 b 376 338 372 226 376 251 b 350 475 376 424 372 458 b 285 496 335 486 307 496 b 254 447 263 496 254 486 b 349 210 254 338 319 210 m 746 767 b 728 1056 772 869 763 924 l 969 1143 b 1025 971 1003 1103 1025 1038 l 871 721 "},"Ľ":{"ha":614,"x_min":0,"x_max":0,"o":"m 489 617 b 489 835 510 699 508 750 b 447 786 468 822 456 808 b 418 425 428 736 418 615 b 497 208 418 233 428 208 b 689 293 575 208 607 239 l 753 228 l 575 -12 b 340 0 517 -12 456 0 b 61 -43 201 0 157 -18 l 17 94 b 72 154 40 107 65 119 b 89 521 82 203 89 424 b 19 740 89 708 63 740 b -22 736 4 740 -22 736 l -35 865 b 522 979 -35 865 221 914 l 532 928 l 711 993 b 767 821 746 953 767 888 l 613 571 "},"ľ":{"ha":496,"x_min":0,"x_max":0,"o":"m 618 207 l 256 -68 b 11 485 60 -33 11 213 b 319 1092 11 874 111 900 b 592 1004 435 1092 533 1060 b 563 1135 586 1040 576 1081 l 804 1222 b 860 1050 838 1182 860 1117 l 704 800 l 635 825 b 311 494 594 719 450 636 b 424 235 325 346 358 235 b 572 285 468 235 572 285 m 301 743 b 303 631 301 706 301 667 b 388 796 365 726 388 771 b 326 868 388 826 354 868 b 301 743 307 868 301 846 "},"Ą":{"ha":824,"x_min":0,"x_max":0,"o":"m 697 -321 b 464 -167 539 -321 464 -267 b 522 15 464 -79 522 -64 b 464 271 522 58 506 135 l 246 271 b 243 229 243 254 243 240 b 374 158 243 146 283 140 l 396 47 l -11 -75 b -87 89 -54 -60 -82 33 b 146 524 -10 157 49 269 b 214 743 193 649 214 711 b 118 772 214 772 196 776 l 110 899 l 601 994 b 888 183 772 282 803 183 b 919 188 904 183 919 188 l 956 86 b 675 -103 739 4 675 -40 b 743 -161 675 -142 701 -161 b 856 -128 799 -161 856 -128 l 894 -212 m 336 640 b 275 421 308 549 289 478 l 415 421 b 336 640 369 554 336 639 "},"Ę":{"ha":671,"x_min":0,"x_max":0,"o":"m 681 504 l 497 407 b 386 413 478 407 435 410 b 485 203 386 243 394 203 b 729 311 575 203 640 243 l 792 244 b 532 -100 601 25 532 -32 b 600 -161 532 -143 558 -161 b 714 -128 656 -161 714 -128 l 751 -211 l 556 -321 b 321 -169 399 -321 321 -265 b 406 0 321 -68 406 0 b 60 -43 190 0 132 -25 l 14 94 b 71 154 42 110 64 122 b 86 506 78 193 86 357 b -25 743 86 742 65 744 l -42 864 l 272 951 b 464 942 292 951 386 942 b 688 968 592 942 688 968 l 726 867 l 535 726 b 438 739 519 726 471 739 b 396 710 404 739 399 726 b 388 569 392 685 389 632 b 653 608 465 567 544 568 "},"ą":{"ha":707,"x_min":0,"x_max":0,"o":"m 575 -324 b 340 -171 417 -324 340 -267 b 417 -12 340 -75 417 -12 b 375 75 417 -12 381 22 l 169 -60 b -10 183 53 -24 -10 72 b 188 386 -10 288 46 343 b 361 457 289 417 361 421 b 331 493 361 467 356 481 b 203 518 296 510 242 518 b 39 474 149 518 114 503 l -10 586 l 278 756 b 647 607 450 756 529 682 b 631 328 649 513 631 408 b 681 224 631 254 646 224 b 785 257 715 224 785 257 l 826 175 b 551 -100 649 44 551 -12 b 619 -164 551 -146 578 -164 b 733 -131 675 -164 733 -131 l 771 -214 m 360 328 b 290 251 317 314 290 300 b 326 185 290 213 306 185 b 356 206 336 185 349 192 b 360 328 364 221 364 243 "},"ę":{"ha":624,"x_min":0,"x_max":0,"o":"m 396 -321 b 161 -167 238 -321 161 -264 b 222 -33 161 -81 222 -33 b -8 349 104 3 -8 172 b 372 749 -8 560 154 614 b 644 444 522 749 651 582 l 324 293 b 438 208 354 244 394 208 b 626 268 493 208 626 268 l 665 179 b 372 -99 521 83 372 13 b 439 -161 372 -143 397 -161 b 554 -128 496 -161 554 -128 l 592 -211 m 261 476 b 278 388 261 453 267 421 b 354 450 326 410 354 428 b 286 519 354 476 313 519 b 261 476 271 519 261 507 "},"ť":{"ha":540,"x_min":0,"x_max":0,"o":"m 390 740 b 404 825 399 772 403 799 b 358 596 374 775 363 726 b 553 624 428 596 481 601 l 579 525 l 421 461 l 357 461 l 357 449 b 390 238 357 292 360 260 b 433 222 401 229 418 222 b 550 265 471 222 550 265 l 596 186 l 214 -56 b 74 58 214 -56 128 -31 b 79 332 74 114 79 265 b -18 479 79 442 64 478 l -15 603 l 72 603 l 72 717 l 354 921 l 404 871 b 372 1029 400 915 389 961 l 613 1117 b 668 944 647 1076 668 1011 l 514 693 "},"Ş":{"ha":629,"x_min":0,"x_max":0,"o":"m 133 299 b 151 251 133 299 135 275 b 339 182 186 201 257 182 b 425 221 400 182 425 193 b -19 628 425 336 -19 349 b 379 999 -19 814 176 876 b 628 953 539 999 628 953 l 603 644 l 485 643 b 451 700 485 643 475 682 b 282 744 419 725 328 744 b 225 708 242 744 225 729 b 672 296 225 597 672 590 b 364 -22 672 121 517 47 b 351 -78 357 -40 351 -64 b 444 -278 351 -150 497 -136 l 233 -392 l 181 -303 b 250 -226 181 -303 250 -267 b 183 -128 250 -193 207 -171 l 221 -62 b -18 -7 57 -53 -18 -7 l 17 304 "},"ş":{"ha":510,"x_min":0,"x_max":0,"o":"m 39 239 b 267 151 88 217 149 151 b 307 168 297 151 307 156 b -36 453 307 239 -36 247 b 246 749 -36 593 124 660 b 515 713 432 747 515 713 b 493 458 515 713 515 564 l 392 465 b 222 547 389 522 297 547 b 182 532 192 547 182 543 b 542 249 182 461 542 469 b 285 -39 542 124 426 47 b 278 -78 281 -53 278 -68 b 371 -278 278 -150 424 -136 l 160 -392 l 107 -303 b 176 -226 107 -303 176 -267 b 108 -128 176 -193 133 -171 l 157 -43 b -37 4 28 -29 -37 4 b 39 239 -37 4 -49 167 "},"ă":{"ha":707,"x_min":0,"x_max":0,"o":"m 826 176 l 494 -67 b 375 75 424 -49 385 6 l 169 -58 b -10 183 53 -24 -10 72 b 188 386 -10 288 46 343 b 361 457 289 417 361 421 b 331 493 361 467 356 481 b 203 518 296 510 242 518 b 39 474 149 518 114 503 l -10 586 l 278 756 b 647 607 450 756 529 682 b 631 329 649 513 631 411 b 681 225 631 254 646 225 b 785 257 715 225 785 257 m 360 328 b 290 251 317 314 290 300 b 326 185 290 213 306 185 b 356 206 336 185 349 192 b 360 328 364 221 364 243 m 267 1053 b 350 938 276 976 301 938 b 432 1053 404 938 425 989 l 600 1053 b 350 790 592 947 543 790 b 100 1053 204 790 101 881 "},"ā":{"ha":707,"x_min":0,"x_max":0,"o":"m 826 176 l 494 -67 b 375 75 424 -49 385 6 l 169 -58 b -10 183 53 -24 -10 72 b 188 386 -10 288 46 343 b 361 457 289 417 361 421 b 331 493 361 467 356 481 b 203 518 296 510 242 518 b 39 474 149 518 114 503 l -10 586 l 278 756 b 647 607 450 756 529 682 b 631 329 649 513 631 411 b 681 225 631 254 646 225 b 785 257 715 225 785 257 m 360 328 b 290 251 317 314 290 300 b 326 185 290 213 306 185 b 356 206 336 185 349 192 b 360 328 364 221 364 243 m 106 964 l 594 964 l 594 811 l 106 811 "},"ć":{"ha":539,"x_min":0,"x_max":0,"o":"m 613 193 l 307 -60 b -8 342 158 -43 -8 117 b 294 722 -8 536 118 583 l 203 803 l 396 1111 l 604 1006 b 368 740 550 876 475 803 b 572 686 501 731 572 686 b 507 444 565 543 507 444 b 299 494 479 444 363 494 b 267 461 275 494 267 488 b 446 226 267 379 349 226 b 568 269 482 226 525 247 "},"č":{"ha":539,"x_min":0,"x_max":0,"o":"m 193 1085 b 353 949 272 1001 314 949 b 503 1079 382 949 419 981 l 606 1001 l 404 736 b 572 686 514 722 572 686 b 507 444 565 543 507 444 b 299 494 479 444 363 494 b 267 461 275 494 267 488 b 446 226 267 379 349 226 b 568 269 482 226 525 247 l 613 193 l 307 -60 b -8 342 158 -43 -8 117 b 289 718 -8 535 114 583 l 82 994 "},"ĉ":{"ha":539,"x_min":0,"x_max":0,"o":"m 613 193 l 307 -60 b -8 342 158 -43 -8 117 b 319 742 -8 546 129 588 b 572 686 485 742 572 686 b 507 444 565 543 507 444 b 299 494 479 444 363 494 b 267 461 275 494 267 488 b 446 226 267 379 349 226 b 568 269 482 226 525 247 m 496 758 b 336 894 415 842 375 894 b 186 764 307 894 269 863 l 82 842 l 322 1158 l 374 1158 l 606 849 "},"ċ":{"ha":539,"x_min":0,"x_max":0,"o":"m 613 193 l 307 -60 b -8 342 158 -43 -8 117 b 319 742 -8 546 129 588 b 572 686 485 742 572 686 b 507 444 565 543 507 444 b 299 494 479 444 363 494 b 267 461 275 494 267 488 b 446 226 267 379 349 226 b 568 269 482 226 525 247 m 167 904 b 344 1106 226 968 289 1038 b 528 890 431 1113 496 1013 l 260 768 "},"ĕ":{"ha":626,"x_min":0,"x_max":0,"o":"m 665 179 l 301 -60 b -8 350 108 -40 -8 171 b 372 749 -8 560 154 614 b 644 444 522 749 651 582 l 324 293 b 438 208 354 244 394 208 b 625 268 493 208 625 268 m 278 1053 b 361 938 288 976 313 938 b 443 1053 415 938 436 989 l 611 1053 b 361 790 603 947 554 790 b 111 1053 215 790 113 881 m 261 476 b 278 388 261 453 267 421 b 354 450 326 410 354 428 b 286 519 354 476 313 519 b 261 476 271 519 261 507 "},"ě":{"ha":626,"x_min":0,"x_max":0,"o":"m 210 1085 b 369 949 289 1001 331 949 b 519 1079 399 949 436 981 l 622 1001 l 425 742 b 644 444 551 708 650 565 l 324 293 b 438 208 354 244 394 208 b 625 268 493 208 625 268 l 665 179 l 301 -60 b -8 350 108 -40 -8 171 b 310 711 -8 539 124 601 l 99 994 m 261 476 b 278 388 261 453 267 421 b 354 450 326 410 354 428 b 286 519 354 476 313 519 b 261 476 271 519 261 507 "},"ė":{"ha":626,"x_min":0,"x_max":0,"o":"m 665 179 l 301 -60 b -8 350 108 -40 -8 171 b 372 749 -8 560 154 614 b 644 444 522 749 651 582 l 324 293 b 438 208 354 244 394 208 b 625 268 493 208 625 268 m 183 904 b 361 1106 243 968 306 1038 b 544 890 447 1113 513 1013 l 276 768 m 261 476 b 278 388 261 453 267 421 b 354 450 326 410 354 428 b 286 519 354 476 313 519 b 261 476 271 519 261 507 "},"ē":{"ha":626,"x_min":0,"x_max":0,"o":"m 665 179 l 301 -60 b -8 350 108 -40 -8 171 b 372 749 -8 560 154 614 b 644 444 522 749 651 582 l 324 293 b 438 208 354 244 394 208 b 625 268 493 208 625 268 m 117 964 l 606 964 l 606 811 l 117 811 m 261 476 b 278 388 261 453 267 421 b 354 450 326 410 354 428 b 286 519 354 476 313 519 b 261 476 271 519 261 507 "},"ğ":{"ha":699,"x_min":0,"x_max":0,"o":"m 763 526 b 646 488 706 499 646 488 b 674 99 646 335 674 185 b 289 -354 674 -111 510 -208 b -65 -174 39 -381 -65 -315 b -18 8 -65 -78 -18 8 l 92 -10 b 296 -135 83 -94 176 -135 b 407 -33 378 -135 407 -115 b 386 125 407 29 390 99 l 232 -19 b -14 325 51 39 -14 174 b 315 744 -14 518 92 615 b 665 629 519 744 569 629 b 743 640 696 629 743 640 m 256 443 b 336 244 256 331 306 244 b 357 258 342 244 350 247 b 368 374 364 271 368 297 b 344 496 368 449 364 476 b 292 521 331 510 308 521 b 256 443 269 521 256 501 m 279 1053 b 363 938 289 976 314 938 b 444 1053 417 938 438 989 l 613 1053 b 363 790 604 947 556 790 b 113 1053 217 790 114 881 "},"ĝ":{"ha":699,"x_min":0,"x_max":0,"o":"m 763 526 b 646 488 706 499 646 488 b 674 99 646 335 674 185 b 289 -354 674 -111 510 -208 b -65 -174 39 -381 -65 -315 b -18 8 -65 -78 -18 8 l 92 -10 b 296 -135 83 -94 176 -135 b 407 -33 378 -135 407 -115 b 386 125 407 29 390 99 l 232 -19 b -14 325 51 39 -14 174 b 315 744 -14 518 92 615 b 665 629 519 744 569 629 b 743 640 696 629 743 640 m 256 443 b 336 244 256 331 306 244 b 357 258 342 244 350 247 b 368 374 364 271 368 297 b 344 496 368 449 364 476 b 292 521 331 510 308 521 b 256 443 269 521 256 501 m 514 758 b 354 894 433 842 393 894 b 204 764 325 894 288 863 l 100 842 l 340 1158 l 392 1158 l 624 849 "},"ġ":{"ha":699,"x_min":0,"x_max":0,"o":"m 763 526 b 646 488 706 499 646 488 b 674 99 646 335 674 185 b 289 -354 674 -111 510 -208 b -65 -174 39 -381 -65 -315 b -18 8 -65 -78 -18 8 l 92 -10 b 296 -135 83 -94 176 -135 b 407 -33 378 -135 407 -115 b 386 125 407 29 390 99 l 232 -19 b -14 325 51 39 -14 174 b 315 744 -14 518 92 615 b 665 629 519 744 569 629 b 743 640 696 629 743 640 m 256 443 b 336 244 256 331 306 244 b 357 258 342 244 350 247 b 368 374 364 271 368 297 b 344 496 368 449 364 476 b 292 521 331 510 308 521 b 256 443 269 521 256 501 m 185 904 b 363 1106 244 968 307 1038 b 546 890 449 1113 514 1013 l 278 768 "},"ĭ":{"ha":457,"x_min":0,"x_max":0,"o":"m 583 194 l 201 -69 b 39 54 99 -54 39 54 b 74 349 39 63 74 168 b -8 508 74 485 54 514 l -28 613 l 285 753 b 418 656 349 740 367 699 b 367 319 413 569 367 444 b 538 272 367 226 392 204 m 186 1053 b 269 938 196 976 221 938 b 351 1053 324 938 344 989 l 519 1053 b 269 790 511 947 463 790 b 19 1053 124 790 21 881 "},"ī":{"ha":457,"x_min":0,"x_max":0,"o":"m 583 194 l 201 -69 b 39 54 99 -54 39 54 b 74 349 39 63 74 168 b -8 508 74 485 54 514 l -28 613 l 285 753 b 418 656 349 740 367 699 b 367 319 413 569 367 444 b 538 272 367 226 392 204 m 25 964 l 514 964 l 514 811 l 25 811 "},"ĩ":{"ha":457,"x_min":0,"x_max":0,"o":"m 583 194 l 201 -69 b 39 54 99 -54 39 54 b 74 349 39 63 74 168 b -8 508 74 485 54 514 l -28 613 l 285 753 b 418 656 349 740 367 699 b 367 319 413 569 367 444 b 538 272 367 226 392 204 m 575 963 l 371 769 b 179 824 272 769 238 824 b 63 769 146 824 108 807 l -21 861 l 182 1056 b 375 1001 282 1056 317 1001 b 490 1056 408 1001 446 1018 "},"ĺ":{"ha":496,"x_min":0,"x_max":0,"o":"m 618 207 l 256 -68 b 11 485 60 -33 11 213 b 268 1044 11 839 94 893 l 229 1079 l 422 1388 l 631 1282 b 474 1069 592 1186 540 1122 b 646 885 576 1038 646 972 b 311 494 646 746 474 661 b 424 235 325 346 358 235 b 572 285 468 235 572 285 m 301 743 b 303 631 301 706 301 667 b 388 796 365 726 388 771 b 326 868 388 826 354 868 b 301 743 307 868 301 846 "},"ń":{"ha":836,"x_min":0,"x_max":0,"o":"m -29 613 l 289 753 b 389 676 315 753 353 715 b 372 499 389 654 372 557 b 600 744 444 614 485 744 b 786 686 665 744 718 703 b 756 322 786 556 756 425 b 797 232 756 260 767 232 b 915 272 835 232 915 272 l 961 196 l 607 -71 b 464 64 533 -60 513 -1 b 472 274 464 103 472 207 b 439 410 472 361 458 410 b 371 235 415 410 371 336 b 396 63 371 158 396 68 l 99 -83 b 10 35 99 -83 39 -53 b 78 300 68 86 78 119 b 24 513 78 479 68 513 b -8 508 8 513 -8 508 m 293 803 l 486 1111 l 694 1006 b 401 708 632 854 539 781 "},"ň":{"ha":836,"x_min":0,"x_max":0,"o":"m -29 613 l 289 753 b 389 676 315 753 353 715 b 372 499 389 654 372 557 b 600 744 444 614 485 744 b 786 686 665 744 718 703 b 756 322 786 556 756 425 b 797 232 756 260 767 232 b 915 272 835 232 915 272 l 961 196 l 607 -71 b 464 64 533 -60 513 -1 b 472 274 464 103 472 207 b 439 410 472 361 458 410 b 371 235 415 410 371 336 b 396 63 371 158 396 68 l 99 -83 b 10 35 99 -83 39 -53 b 78 300 68 86 78 119 b 24 513 78 479 68 513 b -8 508 8 513 -8 508 m 283 1085 b 443 949 363 1001 404 949 b 593 1079 472 949 510 981 l 696 1001 l 456 685 l 404 685 l 172 994 "},"ŏ":{"ha":668,"x_min":0,"x_max":0,"o":"m 342 757 b 706 440 549 747 706 603 b 336 -112 706 257 504 71 b 214 -26 253 -83 214 -26 b 203 64 244 15 246 31 b -26 400 99 146 -26 240 b 342 757 -26 569 114 643 m 261 519 b 235 493 247 519 235 508 b 422 260 235 439 388 260 b 449 294 432 260 449 274 b 261 519 449 354 314 519 m 283 1053 b 367 938 293 976 318 938 b 449 1053 421 938 442 989 l 617 1053 b 367 790 608 947 560 790 b 117 1053 221 790 118 881 "},"ő":{"ha":668,"x_min":0,"x_max":0,"o":"m 342 757 b 706 440 549 747 706 603 b 336 -112 706 257 504 71 b 214 -26 253 -83 214 -26 b 203 64 244 15 246 31 b -26 400 99 146 -26 240 b 342 757 -26 569 114 643 m 261 519 b 235 493 247 519 235 508 b 422 260 235 439 388 260 b 449 294 432 260 449 274 b 261 519 449 354 314 519 m 92 849 l 256 1108 l 439 1033 b 182 772 379 900 300 832 m 376 849 l 540 1108 l 724 1033 b 465 772 665 900 583 832 "},"ō":{"ha":668,"x_min":0,"x_max":0,"o":"m 342 757 b 706 440 549 747 706 603 b 336 -112 706 257 504 71 b 214 -26 253 -83 214 -26 b 203 64 244 15 246 31 b -26 400 99 146 -26 240 b 342 757 -26 569 114 643 m 261 519 b 235 493 247 519 235 508 b 422 260 235 439 388 260 b 449 294 432 260 449 274 b 261 519 449 354 314 519 m 122 964 l 611 964 l 611 811 l 122 811 "},"ŕ":{"ha":621,"x_min":0,"x_max":0,"o":"m 69 -83 b 10 35 69 -83 18 -40 b 78 256 65 78 78 71 b 14 511 78 460 63 511 b -8 508 3 511 -8 508 l -29 613 l 258 754 b 317 736 279 754 297 747 l 242 803 l 435 1111 l 643 1006 b 356 711 581 856 490 783 l 376 697 b 368 522 376 679 368 586 b 481 746 431 671 481 746 b 656 697 586 746 656 697 b 614 367 647 535 614 367 l 519 365 b 454 439 508 408 490 439 b 375 282 399 439 375 368 b 411 47 375 175 411 71 "},"ř":{"ha":621,"x_min":0,"x_max":0,"o":"m 232 1085 b 392 949 311 1001 353 949 b 542 1079 421 949 458 981 l 644 1001 l 404 685 l 376 685 b 368 522 374 653 368 576 b 481 746 431 671 481 746 b 656 697 586 746 656 697 b 614 367 647 535 614 367 l 519 365 b 454 439 508 408 490 439 b 375 282 399 439 375 368 b 411 47 375 175 411 71 l 69 -83 b 10 35 69 -83 18 -40 b 78 256 65 78 78 71 b 14 511 78 460 63 511 b -8 508 3 511 -8 508 l -29 613 l 258 754 b 311 739 276 754 294 749 l 121 994 "},"ś":{"ha":507,"x_min":0,"x_max":0,"o":"m 36 239 b 265 151 86 217 147 151 b 306 168 294 151 306 156 b -37 453 306 238 -37 247 b 228 738 -37 588 110 654 l 154 803 l 347 1111 l 556 1006 b 328 744 503 879 431 807 b 514 713 456 736 514 713 b 492 458 514 713 514 564 l 390 465 b 219 547 388 522 296 547 b 181 532 189 547 181 543 b 540 249 181 460 540 469 b 267 -49 540 119 417 42 b -39 4 64 -49 -39 4 b 36 239 -39 4 -51 167 "},"ŝ":{"ha":507,"x_min":0,"x_max":0,"o":"m 36 239 b 265 151 86 217 147 151 b 306 168 294 151 306 156 b -37 453 306 238 -37 247 b 243 749 -37 593 122 660 b 514 713 431 747 514 713 b 492 458 514 713 514 564 l 390 465 b 219 547 388 522 296 547 b 181 532 189 547 181 543 b 540 249 181 460 540 469 b 267 -49 540 119 417 42 b -39 4 64 -49 -39 4 b 36 239 -39 4 -51 167 m 447 758 b 288 894 367 842 326 894 b 138 764 258 894 221 863 l 33 842 l 274 1158 l 325 1158 l 557 849 "},"ŭ":{"ha":835,"x_min":0,"x_max":0,"o":"m 961 196 l 614 -62 b 467 38 556 -62 522 -15 l 461 183 b 235 -47 376 33 311 -47 b 60 57 179 -47 115 -4 b 74 351 60 100 74 246 b -8 508 74 486 51 514 l -29 613 l 281 753 b 388 672 317 744 357 706 b 357 332 382 599 357 392 b 385 265 357 288 371 265 b 443 465 413 265 443 358 b 432 639 443 531 432 617 l 740 754 b 796 651 740 754 786 711 b 750 383 779 625 750 575 b 799 232 750 274 760 232 b 915 272 836 232 915 272 m 342 1053 b 425 938 351 976 376 938 b 507 1053 479 938 500 989 l 675 1053 b 425 790 667 947 618 790 b 175 1053 279 790 176 881 "},"ű":{"ha":835,"x_min":0,"x_max":0,"o":"m 961 196 l 614 -62 b 467 38 556 -62 522 -15 l 461 183 b 235 -47 376 33 311 -47 b 60 57 179 -47 115 -4 b 74 351 60 100 74 246 b -8 508 74 486 51 514 l -29 613 l 281 753 b 388 672 317 744 357 706 b 357 332 382 599 357 392 b 385 265 357 288 371 265 b 443 465 413 265 443 358 b 432 639 443 531 432 617 l 740 754 b 796 651 740 754 786 711 b 750 383 779 625 750 575 b 799 232 750 274 760 232 b 915 272 836 232 915 272 m 150 849 l 314 1108 l 497 1033 b 240 772 438 900 358 832 m 435 849 l 599 1108 l 782 1033 b 524 772 724 900 642 832 "},"ū":{"ha":835,"x_min":0,"x_max":0,"o":"m 961 196 l 614 -62 b 467 38 556 -62 522 -15 l 461 183 b 235 -47 376 33 311 -47 b 60 57 179 -47 115 -4 b 74 351 60 100 74 246 b -8 508 74 486 51 514 l -29 613 l 281 753 b 388 672 317 744 357 706 b 357 332 382 599 357 392 b 385 265 357 288 371 265 b 443 465 413 265 443 358 b 432 639 443 531 432 617 l 740 754 b 796 651 740 754 786 711 b 750 383 779 625 750 575 b 799 232 750 274 760 232 b 915 272 836 232 915 272 m 181 964 l 669 964 l 669 811 l 181 811 "},"ů":{"ha":835,"x_min":0,"x_max":0,"o":"m 961 196 l 614 -62 b 467 38 556 -62 522 -15 l 461 183 b 235 -47 376 33 311 -47 b 60 57 179 -47 115 -4 b 74 351 60 100 74 246 b -8 508 74 486 51 514 l -29 613 l 281 753 b 388 672 317 744 357 706 b 357 332 382 599 357 392 b 385 265 357 288 371 265 b 443 465 413 265 443 358 b 432 639 443 531 432 617 l 740 754 b 796 651 740 754 786 711 b 750 383 779 625 750 575 b 799 232 750 274 760 232 b 915 272 836 232 915 272 m 222 925 b 463 1132 222 1057 315 1132 b 688 940 601 1132 688 1065 b 444 735 688 808 593 735 b 222 925 307 735 222 799 m 507 932 b 453 1006 507 982 478 1006 b 401 935 425 1006 401 979 b 456 860 401 885 431 860 b 507 932 483 860 507 888 "},"ũ":{"ha":835,"x_min":0,"x_max":0,"o":"m 961 196 l 614 -62 b 467 38 556 -62 522 -15 l 461 183 b 235 -47 376 33 311 -47 b 60 57 179 -47 115 -4 b 74 351 60 100 74 246 b -8 508 74 486 51 514 l -29 613 l 281 753 b 388 672 317 744 357 706 b 357 332 382 599 357 392 b 385 265 357 288 371 265 b 443 465 413 265 443 358 b 432 639 443 531 432 617 l 740 754 b 796 651 740 754 786 711 b 750 383 779 625 750 575 b 799 232 750 274 760 232 b 915 272 836 232 915 272 m 731 963 l 526 769 b 335 824 428 769 393 824 b 218 769 301 824 264 807 l 135 861 l 338 1056 b 531 1001 438 1056 472 1001 b 646 1056 564 1001 601 1018 "},"ẃ":{"ha":1068,"x_min":0,"x_max":0,"o":"m 717 647 l 979 771 b 1078 546 981 771 1078 693 b 854 -51 1078 444 1032 317 b 521 200 625 -50 603 10 l 389 -61 b 89 210 186 -61 125 22 b -15 507 61 356 81 511 l -46 611 l 250 754 b 354 660 296 754 303 708 b 414 260 346 483 388 260 b 453 350 426 260 453 314 b 378 610 453 400 400 514 l 596 722 b 699 589 647 714 663 660 b 694 543 699 589 694 561 b 790 251 694 471 763 251 b 826 414 808 251 826 343 b 763 556 826 496 801 556 b 751 554 757 556 751 554 m 422 803 l 615 1111 l 824 1006 b 531 708 761 854 668 781 "},"ŵ":{"ha":1068,"x_min":0,"x_max":0,"o":"m 717 647 l 979 771 b 1078 546 981 771 1078 693 b 854 -51 1078 444 1032 317 b 521 200 625 -50 603 10 l 389 -61 b 89 210 186 -61 125 22 b -15 507 61 356 81 511 l -46 611 l 250 754 b 354 660 296 754 303 708 b 414 260 346 483 388 260 b 453 350 426 260 453 314 b 378 610 453 400 400 514 l 596 722 b 699 589 647 714 663 660 b 694 543 699 589 694 561 b 790 251 694 471 763 251 b 826 414 808 251 826 343 b 763 556 826 496 801 556 b 751 554 757 556 751 554 m 715 758 b 556 894 635 842 594 894 b 406 764 526 894 489 863 l 301 842 l 542 1158 l 593 1158 l 825 849 "},"ẅ":{"ha":1068,"x_min":0,"x_max":0,"o":"m 717 647 l 979 771 b 1078 546 981 771 1078 693 b 854 -51 1078 444 1032 317 b 521 200 625 -50 603 10 l 389 -61 b 89 210 186 -61 125 22 b -15 507 61 356 81 511 l -46 611 l 250 754 b 354 660 296 754 303 708 b 414 260 346 483 388 260 b 453 350 426 260 453 314 b 378 610 453 400 400 514 l 596 722 b 699 589 647 714 663 660 b 694 543 699 589 694 561 b 790 251 694 471 763 251 b 826 414 808 251 826 343 b 763 556 826 496 801 556 b 751 554 757 556 751 554 m 281 913 l 435 1100 b 585 983 510 1104 558 1036 l 686 1100 b 869 878 821 1108 869 878 l 629 771 l 547 879 l 378 771 "},"ẁ":{"ha":1068,"x_min":0,"x_max":0,"o":"m 604 719 b 699 589 649 707 664 656 b 694 543 699 589 694 561 b 790 251 694 471 763 251 b 826 414 808 251 826 343 b 763 556 826 496 801 556 b 751 554 757 556 751 554 l 717 647 l 979 771 b 1078 546 981 771 1078 693 b 854 -51 1078 444 1032 317 b 521 200 625 -50 603 10 l 389 -61 b 89 210 186 -61 125 22 b -15 507 61 356 81 511 l -46 611 l 250 754 b 354 660 296 754 303 708 b 414 260 346 483 388 260 b 453 350 426 260 453 314 b 378 610 453 400 400 514 l 586 717 b 303 1008 453 788 364 861 l 511 1115 l 703 806 "},"ŷ":{"ha":676,"x_min":0,"x_max":0,"o":"m 303 619 l 553 758 b 697 476 626 710 697 581 b 524 93 697 407 665 301 b 76 -390 326 -197 193 -279 b -136 -371 -86 -412 -136 -371 l -135 -40 l -10 -33 b 121 -124 4 -100 22 -124 b 218 -68 189 -124 218 -112 b 113 233 218 -4 160 122 b -65 497 1 492 -8 507 l -103 606 l 146 751 b 271 682 186 751 221 710 b 428 238 285 604 326 440 b 453 351 440 268 453 308 b 426 468 453 394 440 438 b 347 522 403 521 381 531 m 506 758 b 346 894 425 842 385 894 b 196 764 317 894 279 863 l 92 842 l 332 1158 l 383 1158 l 615 849 "},"ỳ":{"ha":676,"x_min":0,"x_max":0,"o":"m 303 619 l 553 758 b 697 476 626 710 697 581 b 524 93 697 407 665 301 b 76 -390 326 -197 193 -279 b -136 -371 -86 -412 -136 -371 l -135 -40 l -10 -33 b 121 -124 4 -100 22 -124 b 218 -68 189 -124 218 -112 b 113 233 218 -4 160 122 b -65 497 1 492 -8 507 l -103 606 l 146 751 b 271 682 186 751 221 710 b 428 238 285 604 326 440 b 453 351 440 268 453 308 b 426 468 453 394 440 438 b 347 522 403 521 381 531 m 386 713 b 93 1008 247 785 156 858 l 301 1115 l 493 806 "},"ź":{"ha":567,"x_min":0,"x_max":0,"o":"m 679 231 l 492 -8 b 217 0 363 -8 286 0 b 17 -26 92 0 17 -26 b -64 82 17 -26 -35 17 b 197 489 65 307 197 439 b 143 508 197 503 188 508 b -10 468 75 508 38 496 l -75 574 l 110 721 b 358 706 214 721 267 706 b 538 731 476 706 538 731 b 626 611 538 731 589 688 b 326 211 479 375 326 254 b 357 200 326 203 333 200 b 588 315 463 200 522 257 m 183 803 l 376 1111 l 585 1006 b 292 708 522 854 429 781 "},"ż":{"ha":567,"x_min":0,"x_max":0,"o":"m 679 231 l 492 -8 b 217 0 363 -8 286 0 b 17 -26 92 0 17 -26 b -64 82 17 -26 -35 17 b 197 489 65 307 197 439 b 143 508 197 503 188 508 b -10 468 75 508 38 496 l -75 574 l 110 721 b 358 706 214 721 267 706 b 538 731 476 706 538 731 b 626 611 538 731 589 688 b 326 211 479 375 326 254 b 357 200 326 203 333 200 b 588 315 463 200 522 257 m 147 904 b 325 1106 207 968 269 1038 b 508 890 411 1113 476 1013 l 240 768 "},"Ă":{"ha":824,"x_min":0,"x_max":0,"o":"m 956 86 l 585 -79 b 483 58 535 -57 524 -18 b 458 271 490 108 481 182 l 246 271 b 243 229 243 254 243 240 b 374 158 243 146 283 140 l 396 47 l -11 -75 b -87 89 -54 -60 -82 33 b 146 524 -10 157 49 269 b 214 743 193 649 214 711 b 118 772 214 772 196 776 l 110 899 l 601 994 b 888 183 772 282 803 183 b 919 188 904 183 919 188 m 322 1261 b 406 1146 332 1185 357 1146 b 488 1261 460 1146 481 1197 l 656 1261 b 406 999 647 1156 599 999 b 156 1261 260 999 157 1089 m 336 640 b 275 421 308 549 289 478 l 415 421 b 336 640 393 489 365 563 "},"Ā":{"ha":824,"x_min":0,"x_max":0,"o":"m 956 86 l 585 -79 b 483 58 535 -57 524 -18 b 458 271 490 108 481 182 l 246 271 b 243 229 243 254 243 240 b 374 158 243 146 283 140 l 396 47 l -11 -75 b -87 89 -54 -60 -82 33 b 146 524 -10 157 49 269 b 214 743 193 649 214 711 b 118 772 214 772 196 776 l 110 899 l 601 994 b 888 183 772 282 803 183 b 919 188 904 183 919 188 m 161 1172 l 650 1172 l 650 1019 l 161 1019 m 336 640 b 275 421 308 549 289 478 l 415 421 b 336 640 393 489 365 563 "},"Ć":{"ha":688,"x_min":0,"x_max":0,"o":"m 732 207 l 476 -35 b -18 465 200 -64 -18 142 b 479 976 -18 783 194 846 b 710 928 632 976 710 928 b 685 638 710 783 685 638 l 561 640 b 413 733 533 703 501 733 b 296 599 321 733 296 701 b 543 226 296 374 414 226 b 669 288 582 226 608 240 m 274 1072 l 546 1313 l 725 1164 b 349 949 624 1044 508 986 "},"Č":{"ha":688,"x_min":0,"x_max":0,"o":"m 242 1275 b 436 1158 356 1186 393 1158 b 633 1267 481 1158 542 1189 l 719 1158 b 517 975 681 1124 596 1049 b 710 928 644 968 710 928 b 685 638 710 783 685 638 l 561 640 b 413 733 533 703 501 733 b 296 599 321 733 296 701 b 543 226 296 374 414 226 b 669 288 582 226 608 240 l 732 207 l 476 -35 b -18 465 200 -64 -18 142 b 385 933 -18 747 149 828 b 147 1151 299 1013 201 1106 "},"Ĉ":{"ha":688,"x_min":0,"x_max":0,"o":"m 732 207 l 476 -35 b -18 465 200 -64 -18 142 b 479 976 -18 783 194 846 b 710 928 632 976 710 928 b 685 638 710 783 685 638 l 561 640 b 413 733 533 703 501 733 b 296 599 321 733 296 701 b 543 226 296 374 414 226 b 669 288 582 226 608 240 m 625 969 b 431 1088 510 1060 474 1088 b 233 979 386 1088 325 1057 l 147 1086 b 431 1346 200 1132 333 1254 l 443 1346 b 719 1094 536 1263 657 1146 "},"Ċ":{"ha":688,"x_min":0,"x_max":0,"o":"m 732 207 l 476 -35 b -18 465 200 -64 -18 142 b 479 976 -18 783 194 846 b 710 928 632 976 710 928 b 685 638 710 783 685 638 l 561 640 b 413 733 533 703 501 733 b 296 599 321 733 296 701 b 543 226 296 374 414 226 b 669 288 582 226 608 240 m 256 1113 b 433 1314 315 1176 378 1246 b 617 1099 519 1321 585 1221 l 349 976 "},"Ď":{"ha":840,"x_min":0,"x_max":0,"o":"m 238 1275 b 432 1158 351 1186 389 1158 b 629 1267 476 1158 538 1189 l 715 1158 b 511 974 675 1124 592 1049 l 547 981 b 883 529 749 960 883 768 b 460 -10 883 217 654 118 b 288 0 429 -10 347 0 b 60 -42 199 0 126 -21 l 11 96 b 69 161 46 118 63 128 b 86 518 79 210 86 374 b -25 753 86 751 68 764 l -40 875 l 365 947 b 143 1151 283 1022 193 1108 m 551 407 b 417 738 551 600 467 738 b 386 699 399 738 389 718 b 399 265 378 643 382 333 b 454 219 404 243 418 219 b 551 407 501 219 551 258 "},"Ĕ":{"ha":671,"x_min":0,"x_max":0,"o":"m 681 504 l 497 407 b 386 413 478 407 435 410 b 483 203 386 243 393 203 b 729 311 574 203 639 243 l 792 244 l 568 -12 b 333 0 543 -12 440 0 b 60 -43 186 0 143 -24 l 14 94 b 69 154 50 114 63 124 b 85 503 78 193 85 360 b -25 743 85 740 65 744 l -42 864 l 272 951 b 464 942 292 951 386 942 b 688 968 592 942 688 968 l 726 867 l 535 726 b 436 739 519 726 469 739 b 396 710 404 739 399 726 b 388 569 392 685 389 632 b 653 608 464 567 543 568 m 300 1261 b 383 1146 310 1185 335 1146 b 465 1261 438 1146 458 1197 l 633 1261 b 383 999 625 1156 576 999 b 133 1261 238 999 135 1089 "},"Ě":{"ha":671,"x_min":0,"x_max":0,"o":"m 192 1275 b 386 1158 306 1186 343 1158 b 583 1267 431 1158 492 1189 l 669 1158 b 431 942 624 1119 521 1025 l 464 942 b 688 968 592 942 688 968 l 726 867 l 535 726 b 436 739 519 726 469 739 b 396 710 404 739 399 726 b 388 569 392 685 389 632 b 653 608 464 567 543 568 l 681 504 l 497 407 b 386 413 478 407 435 410 b 483 203 386 243 393 203 b 729 311 574 203 639 243 l 792 244 l 568 -12 b 333 0 543 -12 440 0 b 60 -43 186 0 143 -24 l 14 94 b 69 154 50 114 63 124 b 85 503 78 193 85 360 b -25 743 85 740 65 744 l -42 864 l 272 951 b 319 949 279 951 297 950 b 97 1151 238 1024 147 1108 "},"Ė":{"ha":671,"x_min":0,"x_max":0,"o":"m 681 504 l 497 407 b 386 413 478 407 435 410 b 483 203 386 243 393 203 b 729 311 574 203 639 243 l 792 244 l 568 -12 b 333 0 543 -12 440 0 b 60 -43 186 0 143 -24 l 14 94 b 69 154 50 114 63 124 b 85 503 78 193 85 360 b -25 743 85 740 65 744 l -42 864 l 272 951 b 464 942 292 951 386 942 b 688 968 592 942 688 968 l 726 867 l 535 726 b 436 739 519 726 469 739 b 396 710 404 739 399 726 b 388 569 392 685 389 632 b 653 608 464 567 543 568 m 206 1113 b 383 1314 265 1176 328 1246 b 567 1099 469 1321 535 1221 l 299 976 "},"Ē":{"ha":671,"x_min":0,"x_max":0,"o":"m 681 504 l 497 407 b 386 413 478 407 435 410 b 483 203 386 243 393 203 b 729 311 574 203 639 243 l 792 244 l 568 -12 b 333 0 543 -12 440 0 b 60 -43 186 0 143 -24 l 14 94 b 69 154 50 114 63 124 b 85 503 78 193 85 360 b -25 743 85 740 65 744 l -42 864 l 272 951 b 464 942 292 951 386 942 b 688 968 592 942 688 968 l 726 867 l 535 726 b 436 739 519 726 469 739 b 396 710 404 739 399 726 b 388 569 392 685 389 632 b 653 608 464 567 543 568 m 139 1172 l 628 1172 l 628 1019 l 139 1019 "},"Ğ":{"ha":775,"x_min":0,"x_max":0,"o":"m 794 101 b 329 -65 600 -17 329 -65 b -21 446 101 8 -21 229 b 488 975 -21 758 232 849 b 767 947 642 975 767 947 b 749 629 765 778 749 629 l 629 629 b 579 696 619 664 610 681 b 418 725 540 715 475 725 b 299 572 333 725 299 703 b 463 183 299 339 408 183 b 507 203 475 183 497 192 b 517 250 515 213 517 236 b 443 313 517 294 503 306 l 439 436 b 858 444 439 436 654 422 l 860 331 b 794 101 790 303 794 303 m 371 1261 b 454 1146 381 1185 406 1146 b 536 1261 508 1146 529 1197 l 704 1261 b 454 999 696 1156 647 999 b 204 1261 308 999 206 1089 "},"Ĝ":{"ha":775,"x_min":0,"x_max":0,"o":"m 794 101 b 329 -65 600 -17 329 -65 b -21 446 101 8 -21 229 b 488 975 -21 758 232 849 b 767 947 642 975 767 947 b 749 629 765 778 749 629 l 629 629 b 579 696 619 664 610 681 b 418 725 540 715 475 725 b 299 572 333 725 299 703 b 463 183 299 339 408 183 b 507 203 475 183 497 192 b 517 250 515 213 517 236 b 443 313 517 294 503 306 l 439 436 b 858 444 439 436 654 422 l 860 331 b 794 101 790 303 794 303 m 646 969 b 451 1088 531 1060 494 1088 b 254 979 407 1088 346 1057 l 168 1086 b 451 1346 221 1132 354 1254 l 464 1346 b 740 1094 557 1263 678 1146 "},"Ġ":{"ha":775,"x_min":0,"x_max":0,"o":"m 794 101 b 329 -65 600 -17 329 -65 b -21 446 101 8 -21 229 b 488 975 -21 758 232 849 b 767 947 642 975 767 947 b 749 629 765 778 749 629 l 629 629 b 579 696 619 664 610 681 b 418 725 540 715 475 725 b 299 572 333 725 299 703 b 463 183 299 339 408 183 b 507 203 475 183 497 192 b 517 250 515 213 517 236 b 443 313 517 294 503 306 l 439 436 b 858 444 439 436 654 422 l 860 331 b 794 101 790 303 794 303 m 276 1113 b 454 1314 336 1176 399 1246 b 638 1099 540 1321 606 1221 l 369 976 "},"Ĭ":{"ha":468,"x_min":0,"x_max":0,"o":"m 93 489 b 8 744 93 694 81 744 b -22 742 -8 744 -22 742 l -39 864 b 482 979 -39 864 224 906 l 515 857 b 435 779 467 838 443 819 b 419 443 425 729 419 571 b 510 175 419 224 436 175 b 549 178 528 175 549 178 l 567 60 b 42 -67 567 60 290 13 l 8 57 b 75 138 53 81 67 99 b 93 489 89 201 93 371 m 172 1261 b 256 1146 182 1185 207 1146 b 338 1261 310 1146 331 1197 l 506 1261 b 256 999 497 1156 449 999 b 6 1261 110 999 7 1089 "},"İ":{"ha":468,"x_min":0,"x_max":0,"o":"m 93 489 b 8 744 93 694 81 744 b -22 742 -8 744 -22 742 l -39 864 b 482 979 -39 864 224 906 l 515 857 b 435 779 467 838 443 819 b 419 443 425 729 419 571 b 510 175 419 224 436 175 b 549 178 528 175 549 178 l 567 60 b 42 -67 567 60 290 13 l 8 57 b 75 138 53 81 67 99 b 93 489 89 201 93 371 m 78 1113 b 256 1314 138 1176 200 1246 b 439 1099 342 1321 407 1221 l 171 976 "},"Ī":{"ha":468,"x_min":0,"x_max":0,"o":"m 93 489 b 8 744 93 694 81 744 b -22 742 -8 744 -22 742 l -39 864 b 482 979 -39 864 224 906 l 515 857 b 435 779 467 838 443 819 b 419 443 425 729 419 571 b 510 175 419 224 436 175 b 549 178 528 175 549 178 l 567 60 b 42 -67 567 60 290 13 l 8 57 b 75 138 53 81 67 99 b 93 489 89 201 93 371 m 11 1172 l 500 1172 l 500 1019 l 11 1019 "},"Ĩ":{"ha":468,"x_min":0,"x_max":0,"o":"m 93 489 b 8 744 93 694 81 744 b -22 742 -8 744 -22 742 l -39 864 b 482 979 -39 864 224 906 l 515 857 b 435 779 467 838 443 819 b 419 443 425 729 419 571 b 510 175 419 224 436 175 b 549 178 528 175 549 178 l 567 60 b 42 -67 567 60 290 13 l 8 57 b 75 138 53 81 67 99 b 93 489 89 201 93 371 m 561 1171 l 357 978 b 165 1032 258 978 224 1032 b 49 978 132 1032 94 1015 l -35 1069 l 168 1264 b 361 1210 268 1264 303 1210 b 476 1264 394 1210 432 1226 "},"Ĺ":{"ha":614,"x_min":0,"x_max":0,"o":"m 753 228 l 575 -12 b 340 0 517 -12 456 0 b 61 -43 201 0 157 -18 l 17 94 b 72 154 40 107 65 119 b 89 521 82 203 89 424 b 19 740 89 708 63 740 b -22 736 4 740 -22 736 l -35 865 b 522 979 -35 865 221 914 l 544 858 b 447 786 490 839 463 825 b 418 425 428 736 418 615 b 497 208 418 233 428 208 b 689 293 575 208 607 239 m 99 1064 l 371 1304 l 550 1156 b 174 940 449 1036 333 978 "},"Ŀ":{"ha":614,"x_min":0,"x_max":0,"o":"m 753 228 l 575 -12 b 340 0 517 -12 456 0 b 61 -43 201 0 157 -18 l 17 94 b 72 154 40 107 65 119 b 89 521 82 203 89 424 b 19 740 89 708 63 740 b -22 736 4 740 -22 736 l -35 865 b 522 979 -35 865 221 914 l 544 858 b 447 786 490 839 463 825 b 418 425 428 736 418 615 b 497 208 418 233 428 208 b 689 293 575 208 607 239 m 126 1146 b 304 1347 186 1210 249 1279 b 488 1132 390 1354 456 1254 l 219 1010 "},"Ń":{"ha":838,"x_min":0,"x_max":0,"o":"m 622 -40 b 256 497 579 89 456 224 b 347 186 254 231 275 186 b 397 190 369 186 397 190 l 425 69 l 10 -42 l -17 71 b 61 156 -17 71 40 101 b 94 474 78 199 94 322 b 36 739 94 618 79 682 b -72 799 1 785 -32 796 l -82 917 l 315 971 b 664 478 415 924 453 765 b 560 800 665 722 644 800 b 522 797 544 800 522 797 l 506 914 l 878 971 l 896 858 b 840 763 896 858 851 825 b 828 7 826 688 826 401 m 289 1072 l 561 1313 l 740 1164 b 364 949 639 1044 524 986 "},"Ň":{"ha":838,"x_min":0,"x_max":0,"o":"m 622 -40 b 256 497 579 89 456 224 b 347 186 254 231 275 186 b 397 190 369 186 397 190 l 425 69 l 10 -42 l -17 71 b 61 156 -17 71 40 101 b 94 474 78 199 94 322 b 36 739 94 618 79 682 b -72 799 1 785 -32 796 l -82 917 l 315 971 b 664 478 415 924 453 765 b 560 800 665 722 644 800 b 522 797 544 800 522 797 l 506 914 l 878 971 l 896 858 b 840 763 896 858 851 825 b 828 7 826 688 826 401 m 257 1275 b 451 1158 371 1186 408 1158 b 649 1267 496 1158 557 1189 l 735 1158 b 451 900 682 1113 549 992 l 439 900 b 163 1151 346 983 225 1099 "},"Ŏ":{"ha":792,"x_min":0,"x_max":0,"o":"m 239 -43 b 228 101 272 14 279 56 b -28 503 171 153 -28 274 b 414 994 -28 754 208 864 b 828 567 615 994 828 804 b 371 -131 828 285 529 26 m 307 713 b 243 635 267 713 243 672 b 510 294 243 526 449 294 b 558 386 532 294 558 326 b 307 713 558 538 389 713 m 360 1261 b 443 1146 369 1185 394 1146 b 525 1261 497 1146 518 1197 l 693 1261 b 443 999 685 1156 636 999 b 193 1261 297 999 194 1089 "},"Ő":{"ha":792,"x_min":0,"x_max":0,"o":"m 186 1054 l 386 1275 l 517 1150 l 631 1275 l 779 1135 b 539 971 686 1040 582 989 b 828 567 694 913 828 754 b 371 -131 828 285 529 26 l 239 -43 b 228 101 272 14 279 56 b -28 503 171 153 -28 274 b 414 994 -28 754 208 864 b 497 983 442 994 469 990 l 432 1053 b 274 963 353 994 279 965 m 307 713 b 243 635 267 713 243 672 b 510 294 243 526 449 294 b 558 386 532 294 558 326 b 307 713 558 538 389 713 "},"Ō":{"ha":792,"x_min":0,"x_max":0,"o":"m 239 -43 b 228 101 272 14 279 56 b -28 503 171 153 -28 274 b 414 994 -28 754 208 864 b 828 567 615 994 828 804 b 371 -131 828 285 529 26 m 307 713 b 243 635 267 713 243 672 b 510 294 243 526 449 294 b 558 386 532 294 558 326 b 307 713 558 538 389 713 m 199 1172 l 688 1172 l 688 1019 l 199 1019 "},"Ŕ":{"ha":840,"x_min":0,"x_max":0,"o":"m 965 81 l 639 -71 b 457 244 529 -28 556 32 b 360 347 418 322 401 343 b 418 157 361 183 374 157 b 449 158 428 157 449 158 l 467 36 b 44 -76 467 36 242 0 l -1 58 b 63 139 44 97 56 107 b 85 432 75 185 85 289 b 1 753 85 643 64 753 b -39 747 -14 753 -39 747 l -61 878 l 301 999 b 338 968 315 990 328 981 l 275 1072 l 547 1313 l 726 1164 b 353 949 625 1044 511 986 b 382 846 371 921 381 885 l 578 994 b 868 724 722 986 868 851 b 644 444 868 608 746 511 b 864 169 757 304 799 169 b 924 181 883 169 924 181 m 375 676 b 360 515 368 649 361 592 b 538 601 469 517 538 531 b 422 726 538 676 464 726 b 375 676 401 726 385 715 "},"Ř":{"ha":840,"x_min":0,"x_max":0,"o":"m 965 81 l 639 -71 b 457 244 529 -28 556 32 b 360 347 418 322 401 343 b 418 157 361 183 374 157 b 449 158 428 157 449 158 l 467 36 b 44 -76 467 36 242 0 l -1 58 b 63 139 44 97 56 107 b 85 432 75 185 85 289 b 1 753 85 643 64 753 b -39 747 -14 753 -39 747 l -61 878 l 301 999 b 382 846 351 969 381 914 l 578 994 b 868 724 722 986 868 851 b 644 444 868 608 746 511 b 864 169 757 304 799 169 b 924 181 883 169 924 181 m 243 1275 b 438 1158 357 1186 394 1158 b 635 1267 482 1158 543 1189 l 721 1158 b 438 900 668 1113 535 992 l 425 900 b 149 1151 332 983 211 1099 m 375 676 b 360 515 368 649 361 592 b 538 601 469 517 538 531 b 422 726 538 676 464 726 b 375 676 401 726 385 715 "},"Ś":{"ha":629,"x_min":0,"x_max":0,"o":"m 194 1072 l 467 1313 l 646 1164 b 418 994 579 1085 506 1032 b 628 950 553 989 628 950 l 603 642 l 485 642 b 451 697 485 642 476 678 b 282 743 419 724 326 743 b 225 706 242 743 225 726 b 672 296 225 597 672 590 b 276 -64 672 88 451 22 b -18 -7 75 -64 -18 -7 l 17 304 l 133 299 b 151 253 133 299 135 278 b 336 182 185 204 251 182 b 425 222 400 182 425 194 b -19 626 425 338 -19 347 b 319 961 -19 793 140 861 l 269 949 "},"Ŝ":{"ha":629,"x_min":0,"x_max":0,"o":"m 551 976 b 628 950 601 964 628 950 l 603 642 l 485 642 b 451 697 485 642 476 678 b 282 743 419 724 326 743 b 225 706 242 743 225 726 b 672 296 225 597 672 590 b 276 -64 672 88 451 22 b -18 -7 75 -64 -18 -7 l 17 304 l 133 299 b 151 253 133 299 135 278 b 336 182 185 204 251 182 b 425 222 400 182 425 194 b -19 626 425 338 -19 347 b 379 996 -19 811 176 875 b 531 982 440 996 490 990 b 351 1088 426 1063 392 1088 b 154 979 307 1088 246 1057 l 68 1086 b 351 1346 121 1132 254 1254 l 364 1346 b 640 1094 457 1263 578 1146 "},"Ť":{"ha":663,"x_min":0,"x_max":0,"o":"m 167 1275 b 361 1158 281 1186 318 1158 b 558 1267 406 1158 467 1189 l 644 1158 b 406 942 599 1119 496 1025 l 469 942 b 751 968 639 942 751 968 l 794 846 l 619 739 b 493 700 500 739 500 740 b 485 463 488 667 485 558 b 617 174 485 208 504 174 l 639 53 b 132 -79 639 53 400 17 l 81 72 b 149 154 81 72 132 89 b 174 561 164 218 174 421 b 110 764 174 746 157 764 b -64 728 42 764 -64 728 l -106 825 l 125 963 b 296 947 153 963 210 954 b 72 1151 214 1022 124 1108 "},"Ŭ":{"ha":918,"x_min":0,"x_max":0,"o":"m 1024 65 b 608 -79 1024 65 803 11 b 542 35 563 -32 542 35 b 546 163 549 75 547 108 b 268 -68 458 35 378 -68 b 63 68 190 -68 151 -17 b 76 493 63 125 76 308 b 1 732 76 686 61 732 b -32 729 -12 732 -32 729 l -49 861 b 443 976 208 910 443 976 l 469 890 b 908 996 696 931 908 996 l 933 883 b 883 813 933 883 899 856 b 858 463 864 754 858 603 b 946 179 858 263 869 179 b 1000 185 965 179 1000 185 m 406 1261 b 489 1146 415 1185 440 1146 b 571 1261 543 1146 564 1197 l 739 1261 b 489 999 731 1156 682 999 b 239 1261 343 999 240 1089 m 440 806 b 422 767 433 796 425 778 b 403 361 408 715 403 496 b 426 260 403 293 404 260 b 511 315 449 260 494 290 b 535 571 529 347 535 447 b 481 760 535 699 532 760 b 447 756 468 760 447 756 "},"Ű":{"ha":918,"x_min":0,"x_max":0,"o":"m 1024 65 b 608 -79 1024 65 803 11 b 542 35 563 -32 542 35 b 546 163 549 75 547 108 b 268 -68 458 35 378 -68 b 63 68 190 -68 151 -17 b 76 493 63 125 76 308 b 1 732 76 686 61 732 b -32 729 -12 732 -32 729 l -49 861 b 443 976 208 910 443 976 l 469 890 b 908 996 696 931 908 996 l 933 883 b 883 813 933 883 899 856 b 858 463 864 754 858 603 b 946 179 858 263 869 179 b 1000 185 965 179 1000 185 m 478 1053 b 319 963 399 994 325 965 l 232 1054 l 432 1275 l 563 1150 l 676 1275 l 825 1135 b 564 963 708 1015 572 967 m 440 806 b 422 767 433 796 425 778 b 403 361 408 715 403 496 b 426 260 403 293 404 260 b 511 315 449 260 494 290 b 535 571 529 347 535 447 b 481 760 535 699 532 760 b 447 756 468 760 447 756 "},"Ū":{"ha":918,"x_min":0,"x_max":0,"o":"m 1024 65 b 608 -79 1024 65 803 11 b 542 35 563 -32 542 35 b 546 163 549 75 547 108 b 268 -68 458 35 378 -68 b 63 68 190 -68 151 -17 b 76 493 63 125 76 308 b 1 732 76 686 61 732 b -32 729 -12 732 -32 729 l -49 861 b 443 976 208 910 443 976 l 469 890 b 908 996 696 931 908 996 l 933 883 b 883 813 933 883 899 856 b 858 463 864 754 858 603 b 946 179 858 263 869 179 b 1000 185 965 179 1000 185 m 244 1172 l 733 1172 l 733 1019 l 244 1019 m 440 806 b 422 767 433 796 425 778 b 403 361 408 715 403 496 b 426 260 403 293 404 260 b 511 315 449 260 494 290 b 535 571 529 347 535 447 b 481 760 535 699 532 760 b 447 756 468 760 447 756 "},"Ů":{"ha":918,"x_min":0,"x_max":0,"o":"m 243 1124 b 499 1321 243 1263 346 1321 b 733 1139 639 1321 733 1271 b 481 942 733 1001 632 942 l 453 942 l 469 890 b 908 996 696 931 908 996 l 933 883 b 883 813 933 883 899 856 b 858 463 864 754 858 603 b 946 179 858 263 869 179 b 1000 185 965 179 1000 185 l 1024 65 b 608 -79 1024 65 803 11 b 542 35 563 -32 542 35 b 546 163 549 75 547 108 b 268 -68 458 35 378 -68 b 63 68 190 -68 151 -17 b 76 493 63 125 76 308 b 1 732 76 686 61 732 b -32 729 -12 732 -32 729 l -49 861 b 367 956 119 893 276 932 b 243 1124 289 978 243 1031 m 440 806 b 422 767 433 796 425 778 b 403 361 408 715 403 496 b 426 260 403 293 404 260 b 511 315 449 260 494 290 b 535 571 529 347 535 447 b 481 760 535 699 532 760 b 447 756 468 760 447 756 m 553 1129 b 486 1193 553 1165 529 1193 b 425 1133 446 1193 425 1169 b 490 1068 425 1096 449 1068 b 553 1129 531 1068 553 1093 "},"Ũ":{"ha":918,"x_min":0,"x_max":0,"o":"m 1024 65 b 608 -79 1024 65 803 11 b 542 35 563 -32 542 35 b 546 163 549 75 547 108 b 268 -68 458 35 378 -68 b 63 68 190 -68 151 -17 b 76 493 63 125 76 308 b 1 732 76 686 61 732 b -32 729 -12 732 -32 729 l -49 861 b 443 976 208 910 443 976 l 469 890 b 908 996 696 931 908 996 l 933 883 b 883 813 933 883 899 856 b 858 463 864 754 858 603 b 946 179 858 263 869 179 b 1000 185 965 179 1000 185 m 794 1171 l 590 978 b 399 1032 492 978 457 1032 b 282 978 365 1032 328 1015 l 199 1069 l 401 1264 b 594 1210 501 1264 536 1210 b 710 1264 628 1210 665 1226 m 440 806 b 422 767 433 796 425 778 b 403 361 408 715 403 496 b 426 260 403 293 404 260 b 511 315 449 260 494 290 b 535 571 529 347 535 447 b 481 760 535 699 532 760 b 447 756 468 760 447 756 "},"Ẃ":{"ha":1171,"x_min":0,"x_max":0,"o":"m 710 882 b 803 714 710 882 763 831 b 782 649 803 714 782 679 b 886 333 782 590 860 333 b 919 429 899 333 911 389 b 943 624 935 504 943 571 b 846 746 943 728 911 753 l 817 860 l 1182 968 b 1278 803 1226 951 1267 858 b 990 -56 1181 715 1128 528 b 594 338 726 -56 715 6 l 432 -53 b 153 131 257 -57 200 -26 b -40 738 86 353 61 738 b -86 731 -54 738 -86 731 l -112 856 l 286 989 b 371 874 286 989 338 951 b 397 531 349 814 361 735 b 440 344 422 389 428 344 b 510 538 461 344 510 485 b 426 771 510 588 464 665 m 468 1072 l 740 1313 l 919 1164 b 543 949 818 1044 703 986 "},"Ŵ":{"ha":1171,"x_min":0,"x_max":0,"o":"m 710 882 b 803 714 710 882 763 831 b 782 649 803 714 782 679 b 886 333 782 590 860 333 b 919 429 899 333 911 389 b 943 624 935 504 943 571 b 846 746 943 728 911 753 l 817 860 l 1182 968 b 1278 803 1226 951 1267 858 b 990 -56 1181 715 1128 528 b 594 338 726 -56 715 6 l 432 -53 b 153 131 257 -57 200 -26 b -40 738 86 353 61 738 b -86 731 -54 738 -86 731 l -112 856 l 286 989 b 371 874 286 989 338 951 b 397 531 349 814 361 735 b 440 344 422 389 428 344 b 510 538 461 344 510 485 b 426 771 510 588 464 665 m 819 969 b 625 1088 704 1060 668 1088 b 428 979 581 1088 519 1057 l 342 1086 b 625 1346 394 1132 528 1254 l 638 1346 b 914 1094 731 1263 851 1146 "},"Ẅ":{"ha":1171,"x_min":0,"x_max":0,"o":"m 710 882 b 803 714 710 882 763 831 b 782 649 803 714 782 679 b 886 333 782 590 860 333 b 919 429 899 333 911 389 b 943 624 935 504 943 571 b 846 746 943 728 911 753 l 817 860 l 1182 968 b 1278 803 1226 951 1267 858 b 990 -56 1181 715 1128 528 b 594 338 726 -56 715 6 l 432 -53 b 153 131 257 -57 200 -26 b -40 738 86 353 61 738 b -86 731 -54 738 -86 731 l -112 856 l 286 989 b 371 874 286 989 338 951 b 397 531 349 814 361 735 b 440 344 422 389 428 344 b 510 538 461 344 510 485 b 426 771 510 588 464 665 m 344 1121 l 499 1308 b 649 1192 574 1313 622 1244 l 750 1308 b 933 1086 885 1317 933 1086 l 693 979 l 611 1088 l 442 979 "},"Ẁ":{"ha":1171,"x_min":0,"x_max":0,"o":"m 710 882 b 803 714 710 882 763 831 b 782 649 803 714 782 679 b 886 333 782 590 860 333 b 919 429 899 333 911 389 b 943 624 935 504 943 571 b 846 746 943 728 911 753 l 817 860 l 1182 968 b 1278 803 1226 951 1267 858 b 990 -56 1181 715 1128 528 b 594 338 726 -56 715 6 l 432 -53 b 153 131 257 -57 200 -26 b -40 738 86 353 61 738 b -86 731 -54 738 -86 731 l -112 856 l 286 989 b 371 874 286 989 338 951 b 397 531 349 814 361 735 b 440 344 422 389 428 344 b 510 538 461 344 510 485 b 426 771 510 588 464 665 m 715 954 b 339 1169 557 992 440 1049 l 519 1318 l 790 1076 "},"Ŷ":{"ha":740,"x_min":0,"x_max":0,"o":"m 613 969 b 418 1088 506 1053 464 1088 b 253 1006 379 1088 326 1064 b 479 517 335 961 343 789 b 547 714 510 572 547 665 b 478 778 547 753 525 778 b 425 771 454 778 425 771 l 401 893 l 888 1001 l 918 879 b 619 504 842 839 758 724 b 532 290 546 388 532 363 b 610 163 532 185 561 163 b 678 168 633 163 678 168 l 697 53 b 165 -60 697 53 425 17 l 122 64 b 190 122 122 64 171 86 b 210 239 200 140 210 178 b 94 571 210 324 192 385 b -47 744 28 699 1 744 b -125 732 -74 744 -125 732 l -158 850 l 210 993 l 135 1086 b 418 1346 188 1132 321 1254 l 431 1346 b 707 1094 524 1263 644 1146 "},"Ỳ":{"ha":740,"x_min":0,"x_max":0,"o":"m -158 850 l 249 1008 b 479 517 335 968 342 794 b 547 714 510 572 547 665 b 478 778 547 753 525 778 b 425 771 454 778 425 771 l 401 893 l 888 1001 l 918 879 b 619 504 842 839 758 724 b 532 290 546 388 532 363 b 610 163 532 185 561 163 b 678 168 633 163 678 168 l 697 53 b 165 -60 697 53 425 17 l 122 64 b 190 122 122 64 171 86 b 210 239 200 140 210 178 b 94 571 210 324 192 385 b -47 744 28 699 1 744 b -125 732 -74 744 -125 732 m 508 954 b 132 1169 350 992 233 1049 l 313 1318 l 583 1076 "},"Ź":{"ha":742,"x_min":0,"x_max":0,"o":"m 886 272 l 668 -12 b 367 0 619 -12 478 0 b 50 -33 186 0 50 -33 l -17 81 b 371 719 206 424 371 669 b 271 753 371 738 349 753 b -7 657 163 753 99 724 l -69 754 l 158 953 b 463 942 211 953 333 942 b 743 956 608 942 743 956 l 811 851 b 410 219 592 499 410 275 b 490 190 410 199 435 190 b 807 346 624 190 689 238 m 271 1072 l 543 1313 l 722 1164 b 346 949 621 1044 506 986 "},"Ż":{"ha":742,"x_min":0,"x_max":0,"o":"m 886 272 l 668 -12 b 367 0 619 -12 478 0 b 50 -33 186 0 50 -33 l -17 81 b 371 719 206 424 371 669 b 271 753 371 738 349 753 b -7 657 163 753 99 724 l -69 754 l 158 953 b 463 942 211 953 333 942 b 743 956 608 942 743 956 l 811 851 b 410 219 592 499 410 275 b 490 190 410 199 435 190 b 807 346 624 190 689 238 m 253 1113 b 431 1314 313 1176 375 1246 b 614 1099 517 1321 582 1221 l 346 976 "}}}
